<?xml version="1.0" encoding="UTF-8"?>
<!-- Created with Inkscape (http://www.inkscape.org/) -->
<svg width="1920" height="1200" version="1.1" viewBox="0 0 1920 1200" xml:space="preserve" xmlns="http://www.w3.org/2000/svg" xmlns:cc="http://creativecommons.org/ns#" xmlns:dc="http://purl.org/dc/elements/1.1/" xmlns:rdf="http://www.w3.org/1999/02/22-rdf-syntax-ns#" xmlns:xlink="http://www.w3.org/1999/xlink"><metadata><rdf:RDF><cc:Work rdf:about=""><dc:format>image/svg+xml</dc:format><dc:type rdf:resource="http://purl.org/dc/dcmitype/StillImage"/><dc:title/></cc:Work></rdf:RDF></metadata><defs><linearGradient id="linearGradient58" x2="1" gradientTransform="matrix(6447.7 3722.6 -3722.6 6447.7 -625.81 959.68)" gradientUnits="userSpaceOnUse"><stop stop-color="#fff" offset="0"/><stop stop-color="#fff" offset="1"/></linearGradient><linearGradient id="linearGradient116" x2="1" gradientTransform="matrix(5798.1 3347.5 -3347.5 5798.1 -573.97 644.87)" gradientUnits="userSpaceOnUse"><stop stop-color="#fff" offset="0"/><stop stop-color="#fff" offset="1"/></linearGradient><linearGradient id="linearGradient174" x2="1" gradientTransform="matrix(5489.1 3169.2 -3169.2 5489.1 170.87 2166.7)" gradientUnits="userSpaceOnUse"><stop stop-color="#fff" offset="0"/><stop stop-color="#fff" offset="1"/></linearGradient><linearGradient id="linearGradient4681" x1="-3153" x2="-1512.6" y1="-3177.5" y2="-3177.5" gradientTransform="matrix(.73156 0 0 1.3298 1106.6 5185.3)" gradientUnits="userSpaceOnUse"><stop stop-color="#e7ecf0" offset="0"/><stop stop-color="#a9c6de" offset="1"/></linearGradient><linearGradient id="linearGradient4523" x1="201.71" x2="711.79" y1="63.705" y2="63.705" gradientTransform="matrix(.79087 0 0 4.4592 637.06 -1244.1)" gradientUnits="userSpaceOnUse"><stop stop-color="#e7ecf0" stop-opacity="0" offset="0"/><stop stop-color="#e7ecf0" offset="1"/></linearGradient><linearGradient id="linearGradient8460" x1="-224.73" x2="1343.4" y1="-119.49" y2="-119.49" gradientTransform="matrix(.19156 0 0 1.6489 942.86 -762.97)" gradientUnits="userSpaceOnUse"><stop stop-color="#e7ecf0" stop-opacity="0" offset="0"/><stop stop-color="#e7ecf0" offset="1"/></linearGradient></defs><rect transform="rotate(-90)" x="-1200" y="8.0684e-14" width="1200" height="1920" fill="url(#linearGradient4681)" stroke-width="1.4055"/><path d="m5.3394e-4 334.3v865.7h1920v-311.1c-40.848 8.6544-82.973 14.48-126.57 16.994-453.18 26.129-1319.7-482.65-1793.4-571.59z" fill="url(#linearGradient58)" opacity=".16"/><path d="m223.17 614.04c-76.823-0.25863-151.47 2.5068-223.17 9.3789v576.58h1920v-530.26c-483.17 102.65-1145.7-53.842-1696.8-55.697z" fill="url(#linearGradient116)" opacity=".16"/><path d="m1920 199.81c-379.03 176.36-693.24 642.14-983.11 1000.2h983.11z" fill="url(#linearGradient174)" opacity=".16"/><rect transform="rotate(90)" x="796.59" y="-1920" width="403.41" height="1920" fill="url(#linearGradient4523)"/><rect transform="rotate(90)" x="900" y="-1920" width="300" height="1920" fill="url(#linearGradient8460)"/></svg>
