<?xml version="1.0" encoding="UTF-8" standalone="no"?>
<!-- Created with Inkscape (http://www.inkscape.org/) -->

<svg
   xmlns:dc="http://purl.org/dc/elements/1.1/"
   xmlns:cc="http://creativecommons.org/ns#"
   xmlns:rdf="http://www.w3.org/1999/02/22-rdf-syntax-ns#"
   xmlns:svg="http://www.w3.org/2000/svg"
   xmlns="http://www.w3.org/2000/svg"
   xmlns:sodipodi="http://sodipodi.sourceforge.net/DTD/sodipodi-0.dtd"
   xmlns:inkscape="http://www.inkscape.org/namespaces/inkscape"
   width="1920"
   height="1188"
   viewBox="0 0 508.00001 314.325"
   version="1.1"
   id="svg8"
   inkscape:version="0.92.1 r15371"
   sodipodi:docname="bg-fiori-dark-2.svg">
  <defs
     id="defs2">
    <radialGradient
       gradientUnits="userSpaceOnUse"
       gradientTransform="matrix(86.000108,0,0,53.136854,-4444.3776,-294737.88)"
       r="4.1884999"
       cy="5546.9814"
       cx="49.999802"
       id="XMLID_2_">
      <stop
         id="stop4"
         style="stop-color:#405A70"
         offset="0" />
      <stop
         id="stop6"
         style="stop-color:#3B5266"
         offset="8.916432e-02" />
      <stop
         id="stop8"
         style="stop-color:#27333E"
         offset="0.4895" />
      <stop
         id="stop10"
         style="stop-color:#1B1F25"
         offset="0.8069" />
      <stop
         id="stop12"
         style="stop-color:#16181C"
         offset="1" />
    </radialGradient>
    <radialGradient
       id="radialGradient21147"
       cx="49.999802"
       cy="5546.9814"
       r="4.1884999"
       gradientTransform="matrix(222.4491,0,0,137.4382,-10324.87,-762120)"
       gradientUnits="userSpaceOnUse">
      <stop
         offset="0"
         style="stop-color:#405A70"
         id="stop21137" />
      <stop
         offset="8.916432e-02"
         style="stop-color:#3B5266"
         id="stop21139" />
      <stop
         offset="0.4895"
         style="stop-color:#27333E"
         id="stop21141" />
      <stop
         offset="0.8069"
         style="stop-color:#1B1F25"
         id="stop21143" />
      <stop
         offset="1"
         style="stop-color:#16181C"
         id="stop21145" />
    </radialGradient>
  </defs>
  <sodipodi:namedview
     id="base"
     pagecolor="#ffffff"
     bordercolor="#666666"
     borderopacity="1.0"
     inkscape:pageopacity="0.0"
     inkscape:pageshadow="2"
     inkscape:zoom="0.35"
     inkscape:cx="856.38259"
     inkscape:cy="511.68836"
     inkscape:document-units="mm"
     inkscape:current-layer="layer1"
     showgrid="false"
     fit-margin-top="0"
     fit-margin-left="0"
     fit-margin-right="0"
     fit-margin-bottom="0"
     units="px"
     inkscape:showpageshadow="false"
     inkscape:window-width="1920"
     inkscape:window-height="1001"
     inkscape:window-x="-9"
     inkscape:window-y="-9"
     inkscape:window-maximized="1" />
  <metadata
     id="metadata5">
    <rdf:RDF>
      <cc:Work
         rdf:about="">
        <dc:format>image/svg+xml</dc:format>
        <dc:type
           rdf:resource="http://purl.org/dc/dcmitype/StillImage" />
        <dc:title></dc:title>
      </cc:Work>
    </rdf:RDF>
  </metadata>
  <g
     inkscape:label="Ebene 1"
     inkscape:groupmode="layer"
     id="layer1"
     transform="translate(397.59316,48.867117)">
    <rect
       id="XMLID_16548_"
       x="-397.59317"
       y="-48.86713"
       class="st0"
       width="507.96133"
       height="314.32501"
       style="fill:url(#XMLID_2_);stroke-width:0.38661471" />
    <g
       id="XMLID_68434_"
       transform="matrix(0.38660578,0,0,0.38662362,-452.72314,-84.28184)" />
    <g
       id="XMLID_68432_"
       transform="matrix(0.38660578,0,0,0.38662362,-452.72314,-84.28184)" />
    <g
       id="XMLID_68416_"
       transform="matrix(0.38660578,0,0,0.38662362,-452.72314,-84.28184)" />
    <g
       id="XMLID_68414_"
       transform="matrix(0.38660578,0,0,0.38662362,-452.72314,-84.28184)" />
    <g
       id="XMLID_68398_"
       transform="matrix(0.38660578,0,0,0.38662362,-452.72314,-84.28184)" />
    <g
       id="XMLID_68396_"
       transform="matrix(0.38660578,0,0,0.38662362,-452.72314,-84.28184)" />
    <g
       id="XMLID_68380_"
       transform="matrix(0.38660578,0,0,0.38662362,-452.72314,-84.28184)" />
    <g
       id="XMLID_68378_"
       transform="matrix(0.38660578,0,0,0.38662362,-452.72314,-84.28184)" />
    <g
       id="XMLID_68362_"
       transform="matrix(0.38660578,0,0,0.38662362,-452.72314,-84.28184)" />
    <g
       id="XMLID_68360_"
       transform="matrix(0.38660578,0,0,0.38662362,-452.72314,-84.28184)" />
    <g
       id="XMLID_68344_"
       transform="matrix(0.38660578,0,0,0.38662362,-452.72314,-84.28184)" />
    <g
       id="XMLID_68342_"
       transform="matrix(0.38660578,0,0,0.38662362,-452.72314,-84.28184)" />
    <g
       id="XMLID_68326_"
       transform="matrix(0.38660578,0,0,0.38662362,-452.72314,-84.28184)" />
    <g
       id="XMLID_68324_"
       transform="matrix(0.38660578,0,0,0.38662362,-452.72314,-84.28184)" />
    <g
       id="XMLID_68308_"
       transform="matrix(0.38660578,0,0,0.38662362,-452.72314,-84.28184)" />
    <g
       id="XMLID_68306_"
       transform="matrix(0.38660578,0,0,0.38662362,-452.72314,-84.28184)" />
    <g
       id="XMLID_68290_"
       transform="matrix(0.38660578,0,0,0.38662362,-452.72314,-84.28184)" />
    <g
       id="XMLID_68288_"
       transform="matrix(0.38660578,0,0,0.38662362,-452.72314,-84.28184)" />
    <g
       id="XMLID_68272_"
       transform="matrix(0.38660578,0,0,0.38662362,-452.72314,-84.28184)" />
    <g
       id="XMLID_68270_"
       transform="matrix(0.38660578,0,0,0.38662362,-452.72314,-84.28184)" />
    <g
       id="XMLID_68254_"
       transform="matrix(0.38660578,0,0,0.38662362,-452.72314,-84.28184)" />
    <g
       id="XMLID_68252_"
       transform="matrix(0.38660578,0,0,0.38662362,-452.72314,-84.28184)" />
    <g
       id="XMLID_68236_"
       transform="matrix(0.38660578,0,0,0.38662362,-452.72314,-84.28184)" />
    <g
       id="XMLID_68234_"
       transform="matrix(0.38660578,0,0,0.38662362,-452.72314,-84.28184)" />
    <g
       id="XMLID_68216_"
       transform="matrix(0.38660578,0,0,0.38662362,-452.72314,-84.28184)" />
    <g
       id="XMLID_68214_"
       transform="matrix(0.38660578,0,0,0.38662362,-452.72314,-84.28184)" />
    <g
       id="XMLID_68198_"
       transform="matrix(0.38660578,0,0,0.38662362,-452.72314,-84.28184)" />
    <g
       id="XMLID_68196_"
       transform="matrix(0.38660578,0,0,0.38662362,-452.72314,-84.28184)" />
    <g
       id="XMLID_68180_"
       transform="matrix(0.38660578,0,0,0.38662362,-452.72314,-84.28184)" />
    <g
       id="XMLID_68178_"
       transform="matrix(0.38660578,0,0,0.38662362,-452.72314,-84.28184)" />
    <g
       id="XMLID_68162_"
       transform="matrix(0.38660578,0,0,0.38662362,-452.72314,-84.28184)" />
    <g
       id="XMLID_68160_"
       transform="matrix(0.38660578,0,0,0.38662362,-452.72314,-84.28184)" />
    <g
       id="XMLID_68144_"
       transform="matrix(0.38660578,0,0,0.38662362,-452.72314,-84.28184)" />
    <g
       id="XMLID_68142_"
       transform="matrix(0.38660578,0,0,0.38662362,-452.72314,-84.28184)" />
    <g
       id="XMLID_68126_"
       transform="matrix(0.38660578,0,0,0.38662362,-452.72314,-84.28184)" />
    <g
       id="XMLID_68124_"
       transform="matrix(0.38660578,0,0,0.38662362,-452.72314,-84.28184)" />
    <g
       id="XMLID_68108_"
       transform="matrix(0.38660578,0,0,0.38662362,-452.72314,-84.28184)" />
    <g
       id="XMLID_68106_"
       transform="matrix(0.38660578,0,0,0.38662362,-452.72314,-84.28184)" />
    <g
       id="XMLID_68090_"
       transform="matrix(0.38660578,0,0,0.38662362,-452.72314,-84.28184)" />
    <g
       id="XMLID_68088_"
       transform="matrix(0.38660578,0,0,0.38662362,-452.72314,-84.28184)" />
    <g
       id="XMLID_68072_"
       transform="matrix(0.38660578,0,0,0.38662362,-452.72314,-84.28184)" />
    <g
       id="XMLID_68070_"
       transform="matrix(0.38660578,0,0,0.38662362,-452.72314,-84.28184)" />
    <g
       id="XMLID_68054_"
       transform="matrix(0.38660578,0,0,0.38662362,-452.72314,-84.28184)" />
    <g
       id="XMLID_68052_"
       transform="matrix(0.38660578,0,0,0.38662362,-452.72314,-84.28184)" />
    <g
       id="XMLID_68036_"
       transform="matrix(0.38660578,0,0,0.38662362,-452.72314,-84.28184)" />
    <g
       id="XMLID_68034_"
       transform="matrix(0.38660578,0,0,0.38662362,-452.72314,-84.28184)" />
    <g
       id="XMLID_68016_"
       transform="matrix(0.38660578,0,0,0.38662362,-452.72314,-84.28184)" />
    <g
       id="XMLID_68014_"
       transform="matrix(0.38660578,0,0,0.38662362,-452.72314,-84.28184)" />
  </g>
</svg>
