<?xml version="1.0" encoding="UTF-8" standalone="no"?>
<svg
   xmlns:dc="http://purl.org/dc/elements/1.1/"
   xmlns:cc="http://creativecommons.org/ns#"
   xmlns:rdf="http://www.w3.org/1999/02/22-rdf-syntax-ns#"
   xmlns:svg="http://www.w3.org/2000/svg"
   xmlns="http://www.w3.org/2000/svg"
   xmlns:sodipodi="http://sodipodi.sourceforge.net/DTD/sodipodi-0.dtd"
   xmlns:inkscape="http://www.inkscape.org/namespaces/inkscape"
   id="Ñëîé_1"
   data-name="Ñëîé 1"
   viewBox="0 0 281.17 266.74"
   version="1.1"
   sodipodi:docname="hud-2.svg"
   inkscape:version="0.92.1 r15371">
  <metadata
     id="metadata454">
    <rdf:RDF>
      <cc:Work
         rdf:about="">
        <dc:format>image/svg+xml</dc:format>
        <dc:type
           rdf:resource="http://purl.org/dc/dcmitype/StillImage" />
        <dc:title>hud-4</dc:title>
      </cc:Work>
    </rdf:RDF>
  </metadata>
  <sodipodi:namedview
     pagecolor="#ffffff"
     bordercolor="#666666"
     borderopacity="1"
     objecttolerance="10"
     gridtolerance="10"
     guidetolerance="10"
     inkscape:pageopacity="0"
     inkscape:pageshadow="2"
     inkscape:window-width="1920"
     inkscape:window-height="1001"
     id="namedview452"
     showgrid="false"
     inkscape:zoom="2.5024699"
     inkscape:cx="62.032343"
     inkscape:cy="133.37"
     inkscape:window-x="-9"
     inkscape:window-y="-9"
     inkscape:window-maximized="1"
     inkscape:current-layer="Ñëîé_1" />
  <defs
     id="defs4">
    <style
       id="style2">.cls-1{fill:#ffd345;}.cls-2{fill:#b8ff48;}.cls-3,.cls-4,.cls-5,.cls-6,.cls-7,.cls-8{fill:#57ffeb;}.cls-13,.cls-3{opacity:0.2;}.cls-12,.cls-4{opacity:0.4;}.cls-11,.cls-5{opacity:0.6;}.cls-14,.cls-6{opacity:0.1;}.cls-10,.cls-7{opacity:0.8;}.cls-10,.cls-11,.cls-12,.cls-13,.cls-14,.cls-9{fill:#15bdff;}</style>
  </defs>
  <title
     id="title6">hud-4</title>
  <g
     data-name="&lt;Group&gt;"
     id="_Group_6">
    <g
       data-name="&lt;Group&gt;"
       id="_Group_7">
      <path
         style="fill:#15bdff"
         inkscape:connector-curvature="0"
         transform="translate(-199.8,-561.43)"
         d="m 275.8,669.84 -0.41,1 c -0.27,0.66 -0.56,1.63 -1,2.77 l -0.3,0.9 -0.28,1 -0.6,2.1 c -0.19,0.73 -0.35,1.5 -0.54,2.28 l -0.27,1.17 -0.22,1.19 -0.42,2.38 -0.29,2.32 -0.14,1.11 -0.08,1.07 -0.15,2 c -0.08,1.21 -0.07,2.23 -0.1,2.93 v 1.11 h -5.31 v -1.2 c 0,-0.76 0,-1.85 0.11,-3.16 l 0.16,-2.1 0.09,-1.15 0.15,-1.19 0.32,-2.5 0.45,-2.56 0.23,-1.29 0.29,-1.26 c 0.2,-0.84 0.37,-1.66 0.58,-2.45 l 0.64,-2.27 0.3,-1 0.32,-1 c 0.43,-1.24 0.75,-2.28 1,-3 l 0.44,-1.12 z"
         class="cls-9"
         data-name="&lt;Path&gt;"
         id="_Path_15" />
      <path
         style="opacity:0.8;fill:#15bdff"
         inkscape:connector-curvature="0"
         transform="translate(-199.8,-561.43)"
         d="m 279.82,661.32 -0.19,0.33 c -0.12,0.21 -0.3,0.51 -0.48,0.89 -0.38,0.75 -0.9,1.74 -1.39,2.74 l -1.27,2.8 -0.51,1.3 -4.93,-2 0.56,-1.4 1.36,-3 c 0.53,-1.08 1.09,-2.15 1.5,-3 0.2,-0.41 0.39,-0.73 0.52,-1 l 0.21,-0.36 z"
         class="cls-10"
         data-name="&lt;Path&gt;"
         id="_Path_16" />
      <path
         style="opacity:0.6;fill:#15bdff"
         inkscape:connector-curvature="0"
         transform="translate(-199.8,-561.43)"
         d="m 296.73,641.24 -0.23,0.18 c -0.15,0.11 -0.37,0.29 -0.63,0.53 l -2.22,1.93 a 72.14,72.14 0 0 0 -6.17,6.42 c -0.54,0.6 -1,1.24 -1.53,1.87 -0.53,0.63 -1,1.23 -1.43,1.85 -0.87,1.24 -1.72,2.38 -2.35,3.42 -0.63,1.04 -1.21,1.87 -1.55,2.49 l -0.55,1 -4.61,-2.62 0.6,-1 c 0.36,-0.67 1,-1.58 1.67,-2.68 0.67,-1.1 1.59,-2.34 2.53,-3.68 0.47,-0.67 1,-1.32 1.54,-2 0.54,-0.68 1.06,-1.37 1.64,-2 a 77.67,77.67 0 0 1 6.64,-6.9 l 2.38,-2.07 c 0.29,-0.25 0.52,-0.45 0.68,-0.57 l 0.25,-0.19 z"
         class="cls-11"
         data-name="&lt;Path&gt;"
         id="_Path_17" />
      <path
         style="opacity:0.4;fill:#15bdff"
         inkscape:connector-curvature="0"
         transform="translate(-199.8,-561.43)"
         d="m 304.43,635.81 -1.18,0.75 c -0.7,0.46 -1.66,1 -2.56,1.7 -0.9,0.7 -1.84,1.28 -2.48,1.81 l -1.1,0.86 -3.31,-4.14 1.18,-0.93 c 0.7,-0.58 1.69,-1.25 2.67,-2 0.98,-0.75 2,-1.34 2.75,-1.83 l 1.27,-0.81 z"
         class="cls-12"
         data-name="&lt;Path&gt;"
         id="_Path_18" />
      <path
         style="opacity:0.2;fill:#15bdff"
         inkscape:connector-curvature="0"
         transform="translate(-199.8,-561.43)"
         d="m 332.17,626.27 -1.24,0.16 c -0.39,0.06 -0.88,0.09 -1.42,0.2 l -1.83,0.33 c -1.35,0.2 -2.89,0.62 -4.55,1 -1.66,0.38 -3.4,0.92 -5.11,1.54 l -1.29,0.44 c -0.43,0.15 -0.84,0.33 -1.26,0.49 -0.83,0.34 -1.66,0.63 -2.44,1 l -2.24,1 c -0.72,0.31 -1.36,0.68 -2,1 -0.64,0.32 -1.17,0.59 -1.65,0.85 l -1.24,0.72 -1.08,0.62 -2.69,-4.62 1.17,-0.67 1.34,-0.77 c 0.52,-0.29 1.13,-0.58 1.78,-0.92 0.65,-0.34 1.35,-0.72 2.12,-1.05 l 2.41,-1.09 c 0.84,-0.37 1.73,-0.7 2.62,-1.06 0.45,-0.17 0.9,-0.36 1.36,-0.52 l 1.39,-0.47 c 1.84,-0.66 3.74,-1.16 5.5,-1.66 1.76,-0.5 3.45,-0.84 4.9,-1.06 l 2,-0.35 c 0.59,-0.11 1.11,-0.15 1.53,-0.21 l 1.33,-0.17 z"
         class="cls-13"
         data-name="&lt;Path&gt;"
         id="_Path_19" />
      <path
         style="opacity:0.1;fill:#15bdff"
         inkscape:connector-curvature="0"
         transform="translate(-199.8,-561.43)"
         d="m 361.4,629 -0.31,-0.1 -0.89,-0.25 -1.38,-0.39 c -0.53,-0.15 -1.13,-0.33 -1.8,-0.47 a 72.75,72.75 0 0 0 -9.84,-1.69 76.07,76.07 0 0 0 -10,-0.25 c -1.36,0.07 -2.49,0.18 -3.29,0.23 -0.4,0 -0.71,0.05 -0.92,0.09 h -0.32 l -0.58,-5.27 h 0.35 c 0.23,0 0.56,-0.06 1,-0.09 0.85,-0.06 2.07,-0.18 3.54,-0.25 a 81.21,81.21 0 0 1 10.74,0.27 78.32,78.32 0 0 1 10.6,1.82 c 0.72,0.15 1.36,0.35 1.94,0.51 l 1.49,0.42 c 0.83,0.22 1.29,0.39 1.29,0.39 z"
         class="cls-14"
         data-name="&lt;Path&gt;"
         id="_Path_20" />
      <path
         style="opacity:0.2;fill:#15bdff"
         inkscape:connector-curvature="0"
         transform="translate(-199.8,-561.43)"
         d="m 376.47,635.88 -0.6,-0.35 -1.58,-0.91 c -0.65,-0.39 -1.43,-0.79 -2.27,-1.22 -0.84,-0.43 -1.73,-0.9 -2.66,-1.29 -1.82,-0.87 -3.71,-1.57 -5.11,-2.13 l -2.38,-0.81 1.64,-5 2.57,0.87 c 1.51,0.6 3.55,1.36 5.5,2.29 1,0.43 2,0.93 2.86,1.39 0.86,0.46 1.75,0.89 2.45,1.31 l 1.7,1 0.64,0.38 z"
         class="cls-13"
         data-name="&lt;Path&gt;"
         id="_Path_21" />
      <path
         style="opacity:0.4;fill:#15bdff"
         inkscape:connector-curvature="0"
         transform="translate(-199.8,-561.43)"
         d="m 389.48,646.13 -1.82,-1.74 c -0.53,-0.54 -1.21,-1.1 -1.92,-1.72 l -1.1,-1 c -0.38,-0.32 -0.78,-0.62 -1.18,-0.93 -1.56,-1.28 -3.23,-2.41 -4.46,-3.28 l -2.12,-1.36 2.8,-4.51 2.32,1.51 c 1.33,0.93 3.12,2.16 4.8,3.53 0.42,0.34 0.86,0.66 1.27,1 l 1.18,1 c 0.77,0.67 1.49,1.28 2.07,1.85 l 2,1.87 z"
         class="cls-12"
         data-name="&lt;Path&gt;"
         id="_Path_22" />
      <path
         style="opacity:0.6;fill:#15bdff"
         inkscape:connector-curvature="0"
         transform="translate(-199.8,-561.43)"
         d="m 406.91,675.45 -0.1,-0.37 c -0.07,-0.24 -0.16,-0.59 -0.32,-1 l -0.54,-1.59 c -0.21,-0.61 -0.43,-1.31 -0.74,-2 a 66.8,66.8 0 0 0 -5.06,-10.51 71.32,71.32 0 0 0 -6.76,-9.51 L 392,648.76 c -0.42,-0.49 -0.83,-0.88 -1.14,-1.22 l -1,-1.06 3.78,-3.72 1.08,1.14 c 0.34,0.37 0.78,0.79 1.23,1.32 l 1.53,1.77 a 76.64,76.64 0 0 1 7.27,10.24 72.05,72.05 0 0 1 5.45,11.31 c 0.33,0.79 0.58,1.54 0.8,2.2 l 0.58,1.71 c 0.17,0.47 0.27,0.85 0.34,1.11 l 0.11,0.4 z"
         class="cls-11"
         data-name="&lt;Path&gt;"
         id="_Path_23" />
      <path
         style="opacity:0.8;fill:#15bdff"
         inkscape:connector-curvature="0"
         transform="translate(-199.8,-561.43)"
         d="m 409.77,695.15 c 0,0 0,-1.22 -0.08,-3 -0.08,-1.78 -0.27,-4.25 -0.61,-6.66 -0.34,-2.41 -0.81,-4.8 -1.25,-6.57 -0.19,-0.89 -0.4,-1.62 -0.55,-2.13 l -0.23,-0.8 5.1,-1.47 0.25,0.87 c 0.16,0.55 0.39,1.34 0.59,2.3 0.47,1.91 1,4.48 1.35,7.08 0.35,2.6 0.56,5.21 0.66,7.17 l 0.08,3.27 z"
         class="cls-10"
         data-name="&lt;Path&gt;"
         id="_Path_24" />
    </g>
    <g
       data-name="&lt;Group&gt;"
       id="_Group_8">
      <path
         style="fill:#15bdff"
         inkscape:connector-curvature="0"
         transform="translate(-199.8,-561.43)"
         d="m 405,720.46 0.41,-1 c 0.27,-0.66 0.56,-1.62 1,-2.77 l 0.3,-0.9 0.28,-1 0.6,-2.11 c 0.19,-0.73 0.35,-1.5 0.54,-2.28 l 0.27,-1.17 0.22,-1.19 0.42,-2.38 0.3,-2.32 0.14,-1.11 0.08,-1.07 0.15,-2 c 0.08,-1.21 0.07,-2.23 0.1,-2.93 v -1.11 h 5.31 v 1.2 c 0,0.76 0,1.85 -0.11,3.16 l -0.16,2.11 -0.09,1.15 -0.15,1.19 -0.32,2.5 -0.45,2.56 -0.24,1.28 -0.29,1.26 c -0.2,0.83 -0.37,1.66 -0.58,2.45 l -0.64,2.27 -0.3,1 -0.33,1 c -0.43,1.24 -0.75,2.28 -1,3 l -0.44,1.12 z"
         class="cls-9"
         data-name="&lt;Path&gt;"
         id="_Path_25" />
      <path
         style="opacity:0.8;fill:#15bdff"
         inkscape:connector-curvature="0"
         transform="translate(-199.8,-561.43)"
         d="m 401,729 0.19,-0.33 c 0.13,-0.21 0.3,-0.51 0.48,-0.89 0.38,-0.75 0.9,-1.74 1.39,-2.74 l 1.27,-2.8 0.51,-1.3 4.93,2 -0.56,1.4 -1.36,3 c -0.53,1.08 -1.09,2.15 -1.5,3 -0.2,0.41 -0.39,0.73 -0.52,1 l -0.21,0.36 z"
         class="cls-10"
         data-name="&lt;Path&gt;"
         id="_Path_26" />
      <path
         style="opacity:0.6;fill:#15bdff"
         inkscape:connector-curvature="0"
         transform="translate(-199.8,-561.43)"
         d="m 384,749 0.23,-0.18 c 0.15,-0.11 0.36,-0.29 0.63,-0.53 l 2.21,-1.93 A 72.32,72.32 0 0 0 393.3,740 c 0.54,-0.6 1,-1.24 1.53,-1.87 0.53,-0.63 1,-1.23 1.43,-1.85 0.87,-1.24 1.72,-2.38 2.35,-3.42 0.63,-1.04 1.21,-1.87 1.55,-2.49 l 0.55,-1 4.61,2.62 -0.6,1 c -0.36,0.67 -1,1.58 -1.67,2.68 -0.67,1.1 -1.59,2.34 -2.53,3.68 -0.47,0.67 -1,1.31 -1.54,2 -0.54,0.69 -1.06,1.37 -1.65,2 a 77.61,77.61 0 0 1 -6.64,6.9 l -2.38,2.07 c -0.29,0.25 -0.52,0.45 -0.68,0.57 l -0.25,0.19 z"
         class="cls-11"
         data-name="&lt;Path&gt;"
         id="_Path_27" />
      <path
         style="opacity:0.4;fill:#15bdff"
         inkscape:connector-curvature="0"
         transform="translate(-199.8,-561.43)"
         d="m 376.35,754.48 1.18,-0.75 c 0.7,-0.46 1.66,-1 2.56,-1.7 0.9,-0.7 1.84,-1.28 2.48,-1.81 l 1.1,-0.86 3.33,4.14 -1.18,0.93 c -0.7,0.58 -1.69,1.25 -2.67,2 -0.98,0.75 -2,1.34 -2.75,1.83 l -1.27,0.81 z"
         class="cls-12"
         data-name="&lt;Path&gt;"
         id="_Path_28" />
      <path
         style="opacity:0.2;fill:#15bdff"
         inkscape:connector-curvature="0"
         transform="translate(-199.8,-561.43)"
         d="m 348.61,764 1.24,-0.16 c 0.39,-0.06 0.88,-0.09 1.42,-0.2 l 1.83,-0.33 c 1.35,-0.2 2.89,-0.61 4.55,-1 1.66,-0.39 3.4,-0.92 5.11,-1.54 l 1.29,-0.44 c 0.43,-0.15 0.84,-0.33 1.26,-0.49 0.83,-0.34 1.66,-0.63 2.44,-1 l 2.24,-1 c 0.72,-0.31 1.36,-0.68 2,-1 0.64,-0.32 1.17,-0.59 1.65,-0.85 l 1.24,-0.71 1.08,-0.62 2.72,4.55 -1.17,0.67 -1.34,0.77 c -0.52,0.29 -1.13,0.58 -1.78,0.92 -0.65,0.34 -1.35,0.72 -2.12,1.05 l -2.41,1.09 c -0.84,0.37 -1.73,0.7 -2.62,1.06 -0.45,0.17 -0.9,0.36 -1.36,0.52 l -1.39,0.47 c -1.84,0.66 -3.74,1.16 -5.5,1.66 -1.76,0.5 -3.45,0.84 -4.9,1.06 l -2,0.35 c -0.59,0.11 -1.11,0.15 -1.53,0.21 l -1.33,0.17 z"
         class="cls-13"
         data-name="&lt;Path&gt;"
         id="_Path_29" />
      <path
         style="opacity:0.1;fill:#15bdff"
         inkscape:connector-curvature="0"
         transform="translate(-199.8,-561.43)"
         d="m 319.38,761.28 0.31,0.1 0.89,0.25 1.42,0.37 c 0.53,0.15 1.13,0.33 1.8,0.47 a 73,73 0 0 0 9.84,1.69 76.09,76.09 0 0 0 10,0.25 c 1.36,-0.07 2.49,-0.18 3.29,-0.23 0.4,0 0.71,-0.05 0.92,-0.09 h 0.32 l 0.59,5.27 h -0.35 c -0.23,0 -0.56,0.06 -1,0.09 -0.85,0.06 -2.07,0.18 -3.54,0.25 a 81.4,81.4 0 0 1 -10.74,-0.27 78.15,78.15 0 0 1 -10.6,-1.82 c -0.72,-0.15 -1.36,-0.35 -1.94,-0.51 l -1.49,-0.42 c -0.83,-0.22 -1.29,-0.39 -1.29,-0.39 z"
         class="cls-14"
         data-name="&lt;Path&gt;"
         id="_Path_30" />
      <path
         style="opacity:0.2;fill:#15bdff"
         inkscape:connector-curvature="0"
         transform="translate(-199.8,-561.43)"
         d="m 304.31,754.41 0.6,0.35 1.58,0.91 c 0.65,0.39 1.43,0.79 2.27,1.22 0.84,0.43 1.73,0.9 2.66,1.29 1.82,0.87 3.71,1.57 5.11,2.13 l 2.38,0.81 -1.64,5 -2.57,-0.87 c -1.51,-0.6 -3.55,-1.36 -5.5,-2.29 -1,-0.43 -2,-0.93 -2.86,-1.39 -0.86,-0.46 -1.75,-0.89 -2.45,-1.31 l -1.7,-1 -0.64,-0.38 z"
         class="cls-13"
         data-name="&lt;Path&gt;"
         id="_Path_31" />
      <path
         style="opacity:0.4;fill:#15bdff"
         inkscape:connector-curvature="0"
         transform="translate(-199.8,-561.43)"
         d="m 291.3,744.16 1.82,1.74 c 0.53,0.54 1.21,1.1 1.92,1.72 l 1.1,1 c 0.38,0.32 0.78,0.62 1.18,0.93 1.56,1.28 3.23,2.41 4.46,3.28 l 2.12,1.36 -2.8,4.51 -2.28,-1.46 c -1.33,-0.93 -3.12,-2.16 -4.8,-3.53 -0.42,-0.34 -0.86,-0.66 -1.27,-1 l -1.18,-1 c -0.77,-0.67 -1.49,-1.28 -2.07,-1.85 l -2,-1.87 z"
         class="cls-12"
         data-name="&lt;Path&gt;"
         id="_Path_32" />
      <path
         style="opacity:0.6;fill:#15bdff"
         inkscape:connector-curvature="0"
         transform="translate(-199.8,-561.43)"
         d="m 273.87,714.84 0.1,0.37 c 0.07,0.24 0.16,0.59 0.32,1 l 0.54,1.59 c 0.21,0.61 0.43,1.31 0.74,2 a 66.77,66.77 0 0 0 5.06,10.51 71.25,71.25 0 0 0 6.76,9.51 l 1.42,1.64 c 0.42,0.49 0.83,0.88 1.14,1.22 l 1,1.06 -3.78,3.72 -1.08,-1.14 c -0.34,-0.37 -0.78,-0.79 -1.23,-1.32 l -1.53,-1.77 a 76.64,76.64 0 0 1 -7.27,-10.24 72.18,72.18 0 0 1 -5.45,-11.32 c -0.33,-0.79 -0.58,-1.54 -0.8,-2.2 l -0.58,-1.71 c -0.17,-0.47 -0.27,-0.85 -0.34,-1.11 l -0.11,-0.4 z"
         class="cls-11"
         data-name="&lt;Path&gt;"
         id="_Path_33" />
      <path
         style="opacity:0.8;fill:#15bdff"
         inkscape:connector-curvature="0"
         transform="translate(-199.8,-561.43)"
         d="m 271,695.15 0.08,3 c 0.09,1.82 0.27,4.25 0.61,6.67 0.34,2.42 0.81,4.8 1.25,6.57 0.19,0.89 0.4,1.62 0.55,2.14 l 0.23,0.8 -5.1,1.47 -0.25,-0.87 c -0.16,-0.55 -0.39,-1.34 -0.59,-2.3 -0.47,-1.91 -1,-4.48 -1.34,-7.08 -0.34,-2.6 -0.56,-5.21 -0.66,-7.17 l -0.08,-3.27 z"
         class="cls-10"
         data-name="&lt;Path&gt;"
         id="_Path_34" />
    </g>
  </g>
</svg>
