<?xml version="1.0" encoding="UTF-8" standalone="no"?>
<svg
   xmlns:dc="http://purl.org/dc/elements/1.1/"
   xmlns:cc="http://creativecommons.org/ns#"
   xmlns:rdf="http://www.w3.org/1999/02/22-rdf-syntax-ns#"
   xmlns:svg="http://www.w3.org/2000/svg"
   xmlns="http://www.w3.org/2000/svg"
   xmlns:sodipodi="http://sodipodi.sourceforge.net/DTD/sodipodi-0.dtd"
   xmlns:inkscape="http://www.inkscape.org/namespaces/inkscape"
   id="Ñëîé_1"
   data-name="Ñëîé 1"
   viewBox="0 0 281.17 266.74"
   version="1.1"
   sodipodi:docname="hud.svg"
   inkscape:version="0.92.1 r15371">
  <metadata
     id="metadata454">
    <rdf:RDF>
      <cc:Work
         rdf:about="">
        <dc:format>image/svg+xml</dc:format>
        <dc:type
           rdf:resource="http://purl.org/dc/dcmitype/StillImage" />
        <dc:title>hud-4</dc:title>
      </cc:Work>
    </rdf:RDF>
  </metadata>
  <sodipodi:namedview
     pagecolor="#ffffff"
     bordercolor="#666666"
     borderopacity="1"
     objecttolerance="10"
     gridtolerance="10"
     guidetolerance="10"
     inkscape:pageopacity="0"
     inkscape:pageshadow="2"
     inkscape:window-width="1920"
     inkscape:window-height="1001"
     id="namedview452"
     showgrid="false"
     inkscape:zoom="2.5024699"
     inkscape:cx="62.032343"
     inkscape:cy="133.37"
     inkscape:window-x="-9"
     inkscape:window-y="-9"
     inkscape:window-maximized="1"
     inkscape:current-layer="Ñëîé_1" />
  <defs
     id="defs4">
    <style
       id="style2">.cls-1{fill:#ffd345;}.cls-2{fill:#b8ff48;}.cls-3,.cls-4,.cls-5,.cls-6,.cls-7,.cls-8{fill:#57ffeb;}.cls-13,.cls-3{opacity:0.2;}.cls-12,.cls-4{opacity:0.4;}.cls-11,.cls-5{opacity:0.6;}.cls-14,.cls-6{opacity:0.1;}.cls-10,.cls-7{opacity:0.8;}.cls-10,.cls-11,.cls-12,.cls-13,.cls-14,.cls-9{fill:#15bdff;}</style>
  </defs>
  <title
     id="title6">hud-4</title>
  <path
     style="fill:#b8ff48"
     inkscape:connector-curvature="0"
     d="m 140.525,199.28 a 65.57,65.57 0 1 1 65.61,-65.56 65.64,65.64 0 0 1 -65.61,65.56 z m 0,-130.55 a 65,65 0 1 0 65,65 65.05,65.05 0 0 0 -65,-64.99 z"
     class="cls-2"
     data-name="&lt;Compound Path&gt;"
     id="_Compound_Path_3" />
  <g
     data-name="&lt;Group&gt;"
     id="_Group_2">
    <g
       data-name="&lt;Group&gt;"
       id="_Group_3">
      <path
         style="opacity:0.2;fill:#57ffeb"
         inkscape:connector-curvature="0"
         transform="translate(-199.8,-561.43)"
         d="m 243.52,632.13 0.86,-1.34 c 0.56,-0.84 1.41,-2 2.41,-3.42 1,-1.42 2.26,-3 3.59,-4.7 0.34,-0.42 0.66,-0.87 1,-1.29 l 1.11,-1.28 2.25,-2.6 2.37,-2.5 c 0.79,-0.82 1.54,-1.65 2.34,-2.38 l 2.26,-2.15 c 0.36,-0.34 0.7,-0.68 1,-1 l 1,-0.88 3.16,-2.73 1.25,-1 -3.87,-4.83 -1.31,1 -3.24,2.97 -1.07,0.93 c -0.37,0.33 -0.73,0.69 -1.11,1 l -2.38,2.27 c -0.84,0.77 -1.64,1.64 -2.46,2.5 l -2.5,2.63 -2.37,2.74 -1.16,1.34 c -0.39,0.44 -0.73,0.91 -1.08,1.35 -1.4,1.8 -2.76,3.44 -3.78,4.95 -1.02,1.51 -1.95,2.71 -2.54,3.6 l -0.9,1.41 z"
         class="cls-3"
         data-name="&lt;Path&gt;"
         id="_Path_" />
      <path
         style="opacity:0.4;fill:#57ffeb"
         inkscape:connector-curvature="0"
         transform="translate(-199.8,-561.43)"
         d="m 278.45,597.58 1.67,-1.07 c 1,-0.63 2.41,-1.4 3.79,-2.2 1.38,-0.8 2.8,-1.51 3.86,-2.06 l 1.77,-0.91 0.42,-0.58 c 0.25,-0.35 0.6,-0.77 1,-1.22 l 1.42,-1.77 1.86,-1 c 1.13,-0.59 2.67,-1.31 4.2,-2.06 1.53,-0.75 3.12,-1.38 4.29,-1.9 l 2,-0.84 -0.93,-3 -4.8,1.61 c -1.4,0.49 -3,1.17 -4.73,1.83 l -1.31,0.52 -1.32,0.59 -2.64,1.23 -1.35,0.61 -1.31,0.67 -2.54,1.3 c -1.67,0.81 -3.14,1.73 -4.43,2.46 -1.29,0.73 -2.36,1.35 -3.08,1.83 l -1.14,0.73 z"
         class="cls-4"
         data-name="&lt;Path&gt;"
         id="_Path_2" />
      <path
         style="opacity:0.6;fill:#57ffeb"
         inkscape:connector-curvature="0"
         transform="translate(-199.8,-561.43)"
         d="m 394.42,588.07 -0.84,-2.49 -0.33,-0.17 -0.9,-0.41 -2.73,-1.24 c -1,-0.45 -2,-0.91 -2.75,-1.19 l -1.27,-0.5 -2.3,5.75 0.66,0.26 c 0.42,0.17 1,0.39 1.74,0.7 1.41,0.65 3.31,1.47 5.17,2.36 1.86,0.89 3.69,1.86 5.05,2.62 l 2.24,1.29 2.18,-3.77 -2.93,-1.67 z"
         class="cls-5"
         data-name="&lt;Path&gt;"
         id="_Path_3" />
      <path
         style="opacity:0.1;fill:#57ffeb"
         inkscape:connector-curvature="0"
         transform="translate(-199.8,-561.43)"
         d="m 229,645.86 -0.47,1 c -0.3,0.62 -0.63,1.47 -1,2.33 l -1.35,3.41 5.8,2.16 1,-2.49 c 0.3,-0.75 0.62,-1.63 1,-2.55 l 1.3,-2.87 c 0.84,-2 1.88,-3.86 2.6,-5.29 0.37,-0.71 0.66,-1.32 0.9,-1.73 l 0.37,-0.64 -5.42,-3 -1.72,-1 -0.19,0.33 c -0.12,0.21 -0.3,0.51 -0.49,0.88 l -1.33,2.81 c -0.5,1 -1,2 -1.37,2.73 l -0.57,1.26 z"
         class="cls-6"
         data-name="&lt;Path&gt;"
         id="_Path_4" />
    </g>
    <g
       data-name="&lt;Group&gt;"
       id="_Group_4">
      <path
         style="opacity:0.8;fill:#57ffeb"
         inkscape:connector-curvature="0"
         transform="translate(-199.8,-561.43)"
         d="m 411.59,598.67 -1.83,-1.06 c -1.1,-0.63 -2.53,-1.51 -4,-2.26 -1.47,-0.75 -3,-1.57 -4.1,-2.1 l -1.9,-0.87 -1.55,2.68 1.17,0.67 c 0.76,0.41 1.79,1.08 3,1.88 1.21,0.8 2.71,1.7 4.19,2.8 1.48,1.1 3.13,2.18 4.65,3.43 l 2.31,1.81 c 0.76,0.6 1.46,1.25 2.16,1.84 l 2,1.74 c 0.65,0.54 1.2,1.13 1.74,1.63 l 2.58,2.46 0.94,1 4.42,-4.33 -0.55,-0.58 c -0.34,-0.38 -0.89,-0.87 -1.52,-1.48 -1.28,-1.2 -2.92,-2.86 -4.72,-4.36 L 418,601.31 c -0.85,-0.69 -1.66,-1.31 -2.35,-1.86 l -2.3,-1.8 z"
         class="cls-7"
         data-name="&lt;Path&gt;"
         id="_Path_5" />
      <path
         style="opacity:0.8;fill:#57ffeb"
         inkscape:connector-curvature="0"
         transform="translate(-199.8,-561.43)"
         d="m 443.41,642.77 0.72,1.41 c 0.49,0.88 1,2.22 1.76,3.79 0.35,0.79 0.76,1.63 1.13,2.55 l 1.14,2.9 c 0.84,2 1.51,4.2 2.27,6.38 0.4,1.08 0.67,2.21 1,3.3 l 0.91,3.21 c 0.48,2.11 1,4.07 1.32,5.76 l 0.73,4.12 0.21,1.15 a 3.59,3.59 0 0 1 0.06,0.41 l 6.12,-0.92 a 4.3,4.3 0 0 0 -0.07,-0.43 l -0.22,-1.22 -0.78,-4.34 c -0.39,-1.78 -0.88,-3.85 -1.39,-6.07 l -1,-3.38 c -0.34,-1.15 -0.63,-2.33 -1,-3.47 -0.79,-2.3 -1.51,-4.62 -2.39,-6.73 l -1.21,-3.06 c -0.39,-1 -0.83,-1.86 -1.19,-2.69 -0.76,-1.66 -1.35,-3.06 -1.86,-4 l -0.76,-1.49 z"
         class="cls-7"
         data-name="&lt;Path&gt;"
         id="_Path_6" />
      <path
         style="opacity:0.2;fill:#57ffeb"
         inkscape:connector-curvature="0"
         transform="translate(-199.8,-561.43)"
         d="m 406.09,795.47 1.28,0.26 0.89,0.18 0.4,0.07 3.55,-2.53 c 0.9,-0.62 1.75,-1.3 2.39,-1.8 l 1.07,-0.84 -3.82,-4.81 -2,1.6 c -1.25,0.93 -2.95,2.1 -4.63,3.31 l -4.78,3.08 -2.24,1.29 2.18,3.77 0.91,-0.52 c 0.55,-0.32 1.29,-0.72 2,-1.19 z"
         class="cls-3"
         data-name="&lt;Path&gt;"
         id="_Path_7" />
      <path
         style="opacity:0.6;fill:#57ffeb"
         inkscape:connector-curvature="0"
         transform="translate(-199.8,-561.43)"
         d="m 449.23,734.08 -0.21,0.61 c -0.13,0.39 -0.36,0.93 -0.62,1.59 l -0.88,2.24 c -0.32,0.82 -0.65,1.7 -1.06,2.55 -0.79,1.7 -1.52,3.43 -2.15,4.69 l -1.07,2.09 5.51,2.83 1.13,-2.2 c 0.66,-1.33 1.44,-3.15 2.27,-4.95 0.43,-0.89 0.77,-1.82 1.11,-2.68 l 0.93,-2.36 c 0.27,-0.69 0.51,-1.26 0.65,-1.67 l 0.22,-0.64 z"
         class="cls-5"
         data-name="&lt;Path&gt;"
         id="_Path_8" />
      <path
         style="fill:#57ffeb"
         inkscape:connector-curvature="0"
         transform="translate(-199.8,-561.43)"
         d="m 438.74,623.37 -0.66,-0.93 c -0.41,-0.55 -1,-1.26 -1.55,-2 l -1.56,-2 -0.51,-0.65 c -0.12,-0.16 -0.2,-0.24 -0.2,-0.24 l -4.77,3.95 c 0,0 0.17,0.2 0.46,0.58 l 1.2,1.53 1.7,2.16 c 0.6,0.8 1.21,1.69 1.84,2.56 0.63,0.87 1.26,1.74 1.81,2.58 l 1.48,2.32 1.05,1.64 c 0.26,0.39 0.38,0.63 0.38,0.63 l 5.3,-3.2 1.68,-1 -0.19,-0.33 -0.54,-0.85 -1.66,-2.58 -0.88,-1.37 c -0.28,-0.44 -0.58,-0.82 -0.81,-1.17 l -0.8,-1.13 z"
         class="cls-8"
         data-name="&lt;Path&gt;"
         id="_Path_9" />
      <path
         style="opacity:0.4;fill:#57ffeb"
         inkscape:connector-curvature="0"
         transform="translate(-199.8,-561.43)"
         d="m 439.89,770.57 c 0,0 0.6,-0.74 1.42,-1.92 0.82,-1.18 2,-2.71 3,-4.31 l 2.84,-4.43 1.19,-2.07 -2.68,-1.56 -5.35,-3.11 -0.64,1.12 c -0.39,0.72 -1,1.7 -1.8,2.89 -0.8,1.19 -1.62,2.59 -2.67,4 -1.05,1.41 -2.07,3 -3.26,4.45 -2.28,3 -4.76,5.82 -6.65,7.9 l -3.24,3.4 4.37,4.38 0.4,-0.41 1,-1.09 c 0.85,-0.91 2,-2.08 3.12,-3.32 l 3,-3.45 c 0.42,-0.46 0.72,-0.88 1,-1.16 l 0.35,-0.45 2.29,-0.41 z"
         class="cls-4"
         data-name="&lt;Path&gt;"
         id="_Path_10" />
    </g>
    <g
       data-name="&lt;Group&gt;"
       id="_Group_5">
      <path
         style="opacity:0.1;fill:#57ffeb"
         inkscape:connector-curvature="0"
         transform="translate(-199.8,-561.43)"
         d="m 388.34,805.05 1.84,-1 1.88,-1.06 c 0.68,-0.41 1.38,-0.87 2.09,-1.32 1.41,-0.92 2.85,-1.76 3.87,-2.51 l 1.71,-1.21 -1.55,-2.68 -1.17,0.67 -1.34,0.77 c -0.52,0.29 -1.13,0.59 -1.79,0.93 -2.61,1.38 -6.16,3.07 -9.8,4.56 -3.64,1.49 -7.37,2.75 -10.19,3.62 l -3.43,1 -1,0.27 -0.34,0.09 1.54,6 0.77,-0.21 2,-0.58 2.88,-0.82 c 1,-0.33 2.15,-0.72 3.25,-1.09 1.1,-0.37 2.22,-0.72 3.24,-1.13 l 2.79,-1.1 2,-0.78 c 0.47,-0.19 0.74,-0.32 0.74,-0.32 z"
         class="cls-6"
         data-name="&lt;Path&gt;"
         id="_Path_11" />
      <path
         style="opacity:0.2;fill:#57ffeb"
         inkscape:connector-curvature="0"
         transform="translate(-199.8,-561.43)"
         d="m 286.87,797.58 c 0,0 -0.71,-0.35 -1.77,-0.92 l -3.79,-2.18 c -0.7,-0.38 -1.37,-0.82 -2,-1.22 l -1.72,-1.1 -1.68,-1.07 -0.7,-0.09 -1.53,-0.22 -2.25,-0.34 -0.5,-0.3 c -0.31,-0.2 -0.78,-0.45 -1.31,-0.81 l -3.89,-2.61 c -1.41,-1 -2.75,-2 -3.79,-2.77 l -1.24,-0.95 -0.46,-0.37 -2.09,2.28 c 0,0 0.35,0.35 1,0.91 l 2.71,2.35 c 1.1,1 2.49,2 3.94,3.18 0.74,0.56 1.46,1.19 2.27,1.74 l 2.41,1.71 c 1.59,1.18 3.27,2.22 4.83,3.22 0.79,0.49 1.53,1 2.26,1.43 l 2.08,1.19 c 1.29,0.73 2.35,1.38 3.12,1.77 l 1.21,0.62 z"
         class="cls-3"
         data-name="&lt;Path&gt;"
         id="_Path_12" />
      <path
         style="opacity:0.4;fill:#57ffeb"
         inkscape:connector-curvature="0"
         transform="translate(-199.8,-561.43)"
         d="m 252.28,769.91 -0.42,-0.49 c -0.27,-0.31 -0.66,-0.75 -1.09,-1.31 -0.86,-1.11 -2,-2.58 -3.18,-4.07 l -3,-4.21 -1.27,-2 -5.2,3.37 1.34,2.08 3.15,4.43 c 1.2,1.57 2.44,3.12 3.35,4.29 0.45,0.59 0.87,1 1.15,1.38 l 0.45,0.51 z"
         class="cls-4"
         data-name="&lt;Path&gt;"
         id="_Path_13" />
      <path
         style="opacity:0.6;fill:#57ffeb"
         inkscape:connector-curvature="0"
         transform="translate(-199.8,-561.43)"
         d="m 225.28,743.62 c 0,0 0.09,0.22 0.26,0.6 l 0.71,1.58 1,2.23 0.57,1.26 0.65,1.27 c 0.88,1.7 1.72,3.42 2.43,4.67 l 1.19,2.07 2.68,-1.54 5.37,-3.09 -0.64,-1.12 -0.74,-1.28 -0.88,-1.71 -1,-2 c -0.37,-0.72 -0.76,-1.47 -1.11,-2.28 l -1.12,-2.47 c -0.38,-0.84 -0.79,-1.69 -1.11,-2.57 l -1,-2.61 c -0.33,-0.86 -0.69,-1.7 -1,-2.54 l -1.54,-4.58 -1.28,-4.51 -6,1.59 0.57,2 c 0.35,1.19 0.76,2.8 1.33,4.36 0.57,1.56 1.05,3.15 1.47,4.32 l 0.76,1.93 -0.8,2.19 z"
         class="cls-5"
         data-name="&lt;Path&gt;"
         id="_Path_14" />
    </g>
  </g>
  <g
     data-name="&lt;Group&gt;"
     id="_Group_9">
    <g
       data-name="&lt;Group&gt;"
       id="_Group_10">
      <path
         style="fill:#15bdff"
         inkscape:connector-curvature="0"
         transform="translate(-199.8,-561.43)"
         d="m 242.92,639.68 -1.24,2.17 -1.3,2.55 c -0.5,1 -1.1,2.08 -1.63,3.33 a 108.61,108.61 0 0 0 -6.8,18.73 112.1,112.1 0 0 0 -3.32,19.64 c -0.09,1.36 -0.22,2.6 -0.26,3.7 l -0.07,2.86 -0.06,2.49 H 227 c 0,0 0,-0.92 0.06,-2.52 0,-0.8 0,-1.77 0.07,-2.89 0.07,-1.12 0.17,-2.37 0.26,-3.74 l 0.16,-2.14 c 0.06,-0.74 0.18,-1.5 0.27,-2.28 l 0.31,-2.4 0.16,-1.24 0.22,-1.26 0.46,-2.58 c 0.16,-0.87 0.29,-1.76 0.51,-2.63 0.42,-1.75 0.78,-3.55 1.26,-5.32 a 109.77,109.77 0 0 1 6.87,-18.92 c 0.54,-1.26 1.15,-2.37 1.65,-3.37 l 1.32,-2.57 1.25,-2.19 z"
         class="cls-9"
         data-name="&lt;Path&gt;"
         id="_Path_35" />
      <path
         style="fill:#15bdff"
         inkscape:connector-curvature="0"
         transform="translate(-199.8,-561.43)"
         d="m 253.88,623.76 -1.64,2.08 -1.68,2.16 -1.81,2.53 c -0.6,0.87 -1.26,1.71 -1.77,2.55 l -1.46,2.28 -1,1.62 -0.36,0.63 -1,-0.61 0.37,-0.64 1,-1.63 1.48,-2.31 c 0.52,-0.86 1.18,-1.7 1.79,-2.58 l 1.82,-2.56 1.69,-2.16 L 253,623 Z"
         class="cls-9"
         data-name="&lt;Path&gt;"
         id="_Path_36" />
      <path
         style="fill:#15bdff"
         inkscape:connector-curvature="0"
         transform="translate(-199.8,-561.43)"
         d="m 259.31,617.7 -2,2.08 -1.88,2.17 -0.89,-0.77 1.9,-2.19 2,-2.1 z"
         class="cls-9"
         data-name="&lt;Path&gt;"
         id="_Path_37" />
      <path
         style="fill:#15bdff"
         inkscape:connector-curvature="0"
         transform="translate(-199.8,-561.43)"
         d="m 273.34,605.23 -4.08,3.2 -3.93,3.38 -0.79,-0.88 4,-3.42 4.12,-3.23 z"
         class="cls-9"
         data-name="&lt;Path&gt;"
         id="_Path_38" />
      <path
         style="fill:#15bdff"
         inkscape:connector-curvature="0"
         transform="translate(-199.8,-561.43)"
         d="m 282.71,598.95 -0.23,0.13 c -0.15,0.08 -0.36,0.21 -0.61,0.37 l -1.82,1.17 -1.82,1.17 c -0.5,0.31 -0.82,0.54 -0.82,0.54 l -0.66,-1 c 0,0 0.32,-0.23 0.83,-0.55 l 1.84,-1.18 1.84,-1.18 c 0.25,-0.16 0.46,-0.29 0.61,-0.38 l 0.24,-0.14 z"
         class="cls-9"
         data-name="&lt;Path&gt;"
         id="_Path_39" />
      <path
         style="fill:#15bdff"
         inkscape:connector-curvature="0"
         transform="translate(-199.8,-561.43)"
         d="m 291.33,594.27 -2.59,1.33 -1.78,0.91 -0.79,0.45 -0.57,-1 0.8,-0.46 1.8,-0.92 2.62,-1.34 z"
         class="cls-9"
         data-name="&lt;Path&gt;"
         id="_Path_40" />
      <path
         style="fill:#15bdff"
         inkscape:connector-curvature="0"
         transform="translate(-199.8,-561.43)"
         d="m 323.93,584.2 h -0.34 c -0.22,0 -0.54,0.08 -1,0.16 l -3.4,0.61 c -1.41,0.21 -3,0.63 -4.77,1 -0.87,0.21 -1.77,0.38 -2.67,0.65 l -2.73,0.78 c -1.84,0.48 -3.64,1.12 -5.33,1.69 -0.84,0.3 -1.67,0.54 -2.43,0.85 l -2.14,0.85 c -1.32,0.53 -2.44,0.94 -3.19,1.3 l -1.19,0.54 -0.48,-1.08 1.2,-0.54 c 0.76,-0.37 1.89,-0.78 3.23,-1.32 l 2.17,-0.85 c 0.76,-0.32 1.6,-0.56 2.45,-0.86 1.71,-0.58 3.52,-1.22 5.38,-1.71 l 2.76,-0.78 c 0.91,-0.27 1.83,-0.44 2.7,-0.65 1.76,-0.4 3.39,-0.82 4.82,-1 l 3.43,-0.61 c 0.41,-0.07 0.74,-0.14 1,-0.16 h 0.34 z"
         class="cls-9"
         data-name="&lt;Path&gt;"
         id="_Path_41" />
      <path
         style="fill:#15bdff"
         inkscape:connector-curvature="0"
         transform="translate(-199.8,-561.43)"
         d="m 331.84,583.34 -2.08,0.16 c -0.52,0 -1,0.08 -1.42,0.14 l -0.65,0.08 -0.13,-1.17 0.65,-0.08 c 0.39,-0.06 0.91,-0.1 1.44,-0.14 l 2.1,-0.16 z"
         class="cls-9"
         data-name="&lt;Path&gt;"
         id="_Path_42" />
      <path
         style="fill:#15bdff"
         inkscape:connector-curvature="0"
         transform="translate(-199.8,-561.43)"
         d="m 366.66,586.11 -1.17,-0.27 c -0.74,-0.16 -1.8,-0.45 -3.08,-0.68 l -4.39,-0.78 c -1.61,-0.26 -3.34,-0.44 -5.07,-0.67 -0.86,-0.13 -1.73,-0.19 -2.58,-0.25 l -2.51,-0.19 c -1.63,-0.16 -3.15,-0.16 -4.46,-0.2 -1.31,-0.04 -2.4,-0.07 -3.16,-0.07 h -1.2 v -1.18 h 1.21 c 0.77,0 1.87,0 3.19,0.07 1.32,0.07 2.86,0 4.5,0.2 l 2.54,0.19 c 0.86,0.06 1.74,0.13 2.61,0.25 1.74,0.23 3.5,0.42 5.12,0.68 l 4.44,0.79 c 1.3,0.24 2.36,0.53 3.11,0.69 l 1.18,0.27 z"
         class="cls-9"
         data-name="&lt;Path&gt;"
         id="_Path_43" />
      <path
         style="fill:#15bdff"
         inkscape:connector-curvature="0"
         transform="translate(-199.8,-561.43)"
         d="m 382.59,591.23 -1.7,-0.67 -1.74,-0.69 c -0.64,-0.24 -1.34,-0.46 -2,-0.7 -1.38,-0.46 -2.75,-1 -3.8,-1.26 l -1.75,-0.5 0.33,-1.13 1.77,0.5 c 1.06,0.31 2.45,0.81 3.84,1.28 0.7,0.24 1.4,0.46 2,0.7 l 1.76,0.69 1.71,0.68 z"
         class="cls-9"
         data-name="&lt;Path&gt;"
         id="_Path_44" />
      <polygon
         style="fill:#15bdff"
         points="185.48,29.63 187.53,30.55 187.04,31.63 185.01,30.71 "
         class="cls-9"
         data-name="&lt;Path&gt;"
         id="_Path_45" />
      <path
         style="fill:#15bdff"
         inkscape:connector-curvature="0"
         transform="translate(-199.8,-561.43)"
         d="m 396.46,598 -1.17,-0.67 c -0.7,-0.41 -1.63,-0.95 -2.59,-1.42 l -2.63,-1.35 -0.87,-0.44 -0.33,-0.16 0.51,-1.06 0.34,0.16 0.88,0.45 2.66,1.36 c 1,0.48 1.92,1 2.62,1.43 l 1.18,0.68 z"
         class="cls-9"
         data-name="&lt;Path&gt;"
         id="_Path_46" />
    </g>
    <g
       data-name="&lt;Group&gt;"
       id="_Group_11">
      <path
         style="fill:#15bdff"
         inkscape:connector-curvature="0"
         transform="translate(-199.8,-561.43)"
         d="m 437.17,638.47 -0.32,-0.57 c -0.21,-0.37 -0.51,-0.92 -1,-1.58 l -1.54,-2.41 -1,-1.48 -1.13,-1.59 a 111.61,111.61 0 0 0 -28.14,-28 c -1.09,-0.81 -2.17,-1.45 -3.09,-2.05 l -2.41,-1.54 -2.08,-1.25 0.59,-1 2.18,1.26 2.43,1.56 c 0.93,0.61 2,1.25 3.12,2.08 a 112.76,112.76 0 0 1 28.44,28.27 l 1.14,1.61 1,1.5 1.56,2.43 c 0.44,0.67 0.74,1.22 1,1.59 l 0.33,0.57 z"
         class="cls-9"
         data-name="&lt;Path&gt;"
         id="_Path_47" />
      <path
         style="fill:#15bdff"
         inkscape:connector-curvature="0"
         transform="translate(-199.8,-561.43)"
         d="m 445.48,655.91 -1,-2.46 c -0.3,-0.73 -0.6,-1.61 -1,-2.51 l -1.28,-2.83 -0.65,-1.44 c -0.22,-0.47 -0.47,-0.92 -0.69,-1.37 l -1.24,-2.41 c -0.36,-0.71 -0.66,-1.3 -0.9,-1.7 l -0.36,-0.63 1,-0.57 0.37,0.64 c 0.25,0.4 0.54,1 0.91,1.71 l 1.25,2.44 c 0.23,0.45 0.47,0.9 0.7,1.38 l 0.66,1.46 1.29,2.86 c 0.42,0.91 0.73,1.8 1,2.54 l 1,2.49 z"
         class="cls-9"
         data-name="&lt;Path&gt;"
         id="_Path_48" />
      <path
         style="fill:#15bdff"
         inkscape:connector-curvature="0"
         transform="translate(-199.8,-561.43)"
         d="m 448,663.64 -0.25,-0.86 c -0.14,-0.52 -0.34,-1.21 -0.58,-1.88 l -0.92,-2.72 1.11,-0.39 0.93,2.75 c 0.24,0.68 0.45,1.38 0.59,1.9 l 0.25,0.87 z"
         class="cls-9"
         data-name="&lt;Path&gt;"
         id="_Path_49" />
      <path
         style="fill:#15bdff"
         inkscape:connector-curvature="0"
         transform="translate(-199.8,-561.43)"
         d="m 451.76,682 -0.2,-1.61 c -0.13,-1 -0.25,-2.25 -0.51,-3.53 l -0.63,-3.51 c -0.16,-1 -0.32,-1.59 -0.32,-1.59 l 1.15,-0.24 c 0,0 0.17,0.63 0.33,1.6 l 0.63,3.54 c 0.26,1.29 0.38,2.59 0.51,3.56 l 0.21,1.62 z"
         class="cls-9"
         data-name="&lt;Path&gt;"
         id="_Path_50" />
      <path
         style="fill:#15bdff"
         inkscape:connector-curvature="0"
         transform="translate(-199.8,-561.43)"
         d="m 452.5,693.29 -0.08,-3.15 c 0,-0.79 -0.08,-1.57 -0.12,-2.16 l -0.07,-1 1.18,-0.08 0.08,1 c 0,0.6 0.12,1.39 0.13,2.18 l 0.08,3.18 z"
         class="cls-9"
         data-name="&lt;Path&gt;"
         id="_Path_51" />
      <path
         style="fill:#15bdff"
         inkscape:connector-curvature="0"
         transform="translate(-199.8,-561.43)"
         d="m 452.24,703.1 0.07,-0.91 c 0,-0.54 0.11,-1.27 0.12,-2 l 0.07,-2.92 h 1.18 c 0,0 0,1.47 -0.08,2.95 0,0.74 -0.08,1.47 -0.12,2 l -0.07,0.92 z"
         class="cls-9"
         data-name="&lt;Path&gt;"
         id="_Path_52" />
      <path
         style="fill:#15bdff"
         inkscape:connector-curvature="0"
         transform="translate(-199.8,-561.43)"
         d="m 444.7,736.36 0.48,-1.22 0.55,-1.4 0.63,-1.84 c 1,-2.69 2.06,-6.34 3,-10 0.94,-3.66 1.58,-7.45 2,-10.27 l 0.6,-4.72 1.17,0.12 -0.61,4.77 c -0.44,2.85 -1.11,6.64 -2,10.38 -0.89,3.74 -2,7.42 -3,10.14 l -0.63,1.86 -0.56,1.41 -0.49,1.23 z"
         class="cls-9"
         data-name="&lt;Path&gt;"
         id="_Path_53" />
      <polygon
         style="fill:#15bdff"
         points="244.53,178.9 242.8,182.74 241.73,182.23 243.45,178.43 "
         class="cls-9"
         data-name="&lt;Path&gt;"
         id="_Path_54" />
      <path
         style="fill:#15bdff"
         inkscape:connector-curvature="0"
         transform="translate(-199.8,-561.43)"
         d="m 421.66,772.39 0.83,-0.87 0.95,-1 1.17,-1.35 1.38,-1.59 c 0.49,-0.57 1,-1.15 1.51,-1.81 1,-1.29 2.11,-2.63 3.14,-4 1.03,-1.37 2,-2.83 3,-4.18 l 2.41,-3.76 c 0.7,-1.1 1.21,-2.07 1.6,-2.72 l 0.6,-1 1,0.58 -0.6,1 c -0.4,0.66 -0.91,1.64 -1.62,2.75 l -2.43,3.8 c -0.93,1.36 -2,2.78 -3,4.22 -1,1.44 -2.16,2.78 -3.17,4.08 -0.5,0.66 -1,1.25 -1.52,1.83 l -1.4,1.61 -1.18,1.36 -1,1 -0.83,0.88 z"
         class="cls-9"
         data-name="&lt;Path&gt;"
         id="_Path_55" />
      <path
         style="fill:#15bdff"
         inkscape:connector-curvature="0"
         transform="translate(-199.8,-561.43)"
         d="m 409.26,783.63 1.43,-1.13 c 0.88,-0.65 2,-1.62 3.07,-2.58 1.07,-0.96 2.22,-1.9 3,-2.67 l 1.32,-1.26 0.82,0.85 -1.33,1.27 c -0.78,0.78 -1.91,1.73 -3,2.7 -1.09,0.97 -2.22,1.94 -3.1,2.6 l -1.47,1.15 z"
         class="cls-9"
         data-name="&lt;Path&gt;"
         id="_Path_56" />
      <polygon
         style="fill:#15bdff"
         points="208.27,224.63 206.44,225.93 205.75,224.97 207.56,223.68 "
         class="cls-9"
         data-name="&lt;Path&gt;"
         id="_Path_57" />
      <path
         style="fill:#15bdff"
         inkscape:connector-curvature="0"
         transform="translate(-199.8,-561.43)"
         d="m 396.46,792.27 1.17,-0.67 c 0.71,-0.39 1.61,-1 2.52,-1.55 l 2.49,-1.6 c 0.34,-0.21 0.62,-0.4 0.81,-0.54 l 0.3,-0.21 0.67,1 -0.3,0.22 c -0.19,0.14 -0.47,0.33 -0.82,0.55 l -2.53,1.53 c -0.91,0.59 -1.83,1.18 -2.54,1.57 l -1.18,0.68 z"
         class="cls-9"
         data-name="&lt;Path&gt;"
         id="_Path_58" />
    </g>
    <g
       data-name="&lt;Group&gt;"
       id="_Group_12">
      <path
         style="fill:#15bdff"
         inkscape:connector-curvature="0"
         transform="translate(-199.8,-561.43)"
         d="m 341.08,807.29 2.49,-0.06 c 0.79,0 1.76,0 2.86,-0.09 l 3.7,-0.28 a 113.42,113.42 0 0 0 19.62,-3.46 111.7,111.7 0 0 0 18.69,-6.89 c 1.24,-0.57 2.33,-1.17 3.32,-1.66 0.99,-0.49 1.85,-0.92 2.54,-1.33 l 2.16,-1.24 0.59,1 -2.18,1.26 c -0.69,0.41 -1.57,0.82 -2.56,1.34 -0.99,0.52 -2.1,1.11 -3.35,1.68 a 112.83,112.83 0 0 1 -18.89,7 c -3.54,1 -7.12,1.75 -10.51,2.31 -1.69,0.34 -3.34,0.52 -4.9,0.72 l -2.28,0.29 c -0.74,0.1 -1.45,0.12 -2.14,0.18 l -3.74,0.28 c -1.12,0.06 -2.09,0.06 -2.89,0.09 l -2.52,0.06 z"
         class="cls-9"
         data-name="&lt;Path&gt;"
         id="_Path_59" />
      <path
         style="fill:#15bdff"
         inkscape:connector-curvature="0"
         transform="translate(-199.8,-561.43)"
         d="m 321.82,805.75 0.72,0.13 0.82,0.14 1.08,0.14 2.69,0.34 1.52,0.19 c 0.52,0.07 1,0.09 1.57,0.13 l 3.1,0.24 c 0.5,0 1,0.08 1.43,0.1 h 1.28 l 2.65,0.07 v 1.18 l -2.67,-0.07 h -1.29 c -0.46,0 -0.94,-0.07 -1.44,-0.1 L 330.15,808 c -0.53,0 -1.07,-0.07 -1.59,-0.13 l -1.53,-0.19 -2.72,-0.35 -1.09,-0.14 -0.83,-0.15 -0.72,-0.13 z"
         class="cls-9"
         data-name="&lt;Path&gt;"
         id="_Path_60" />
      <path
         style="fill:#15bdff"
         inkscape:connector-curvature="0"
         transform="translate(-199.8,-561.43)"
         d="m 313.85,804.12 2.8,0.65 c 0.7,0.17 1.4,0.32 1.93,0.4 l 0.88,0.16 -0.22,1.16 -0.89,-0.16 c -0.54,-0.08 -1.25,-0.24 -2,-0.41 l -2.83,-0.65 z"
         class="cls-9"
         data-name="&lt;Path&gt;"
         id="_Path_61" />
      <path
         style="fill:#15bdff"
         inkscape:connector-curvature="0"
         transform="translate(-199.8,-561.43)"
         d="m 296,798.18 c 0,0 0.58,0.29 1.49,0.63 l 3.32,1.31 0.9,0.35 0.89,0.3 1.57,0.53 1.53,0.52 -0.36,1.12 -1.55,-0.53 -1.59,-0.54 -0.89,-0.31 -0.91,-0.36 -3.35,-1.32 c -0.92,-0.35 -1.51,-0.63 -1.51,-0.63 z"
         class="cls-9"
         data-name="&lt;Path&gt;"
         id="_Path_62" />
      <path
         style="fill:#15bdff"
         inkscape:connector-curvature="0"
         transform="translate(-199.8,-561.43)"
         d="m 285.92,793.19 0.85,0.49 c 0.52,0.28 1.22,0.63 1.92,1 l 2.8,1.43 -0.51,1.06 -2.83,-1.45 c -0.71,-0.37 -1.42,-0.72 -1.94,-1 l -0.86,-0.5 z"
         class="cls-9"
         data-name="&lt;Path&gt;"
         id="_Path_63" />
      <path
         style="fill:#15bdff"
         inkscape:connector-curvature="0"
         transform="translate(-199.8,-561.43)"
         d="m 277.56,788.07 0.76,0.5 1.69,1.08 1.69,1.08 c 0.46,0.3 0.77,0.48 0.77,0.48 l -0.61,1 c 0,0 -0.32,-0.18 -0.78,-0.48 l -1.71,-1.09 -1.71,-1.09 -0.77,-0.5 z"
         class="cls-9"
         data-name="&lt;Path&gt;"
         id="_Path_64" />
      <path
         style="fill:#15bdff"
         inkscape:connector-curvature="0"
         transform="translate(-199.8,-561.43)"
         d="m 252.56,764.86 0.81,1 c 0.5,0.67 1.3,1.54 2.23,2.63 l 1.51,1.74 c 0.54,0.62 1.15,1.22 1.76,1.88 l 1.9,2 c 0.65,0.68 1.36,1.31 2,2 l 2.06,2 c 0.7,0.63 1.4,1.22 2.07,1.81 l 1.94,1.68 c 0.63,0.52 1.25,1 1.81,1.43 l 2.72,2.13 1.07,0.76 -0.69,1 -1.08,-0.77 -2.67,-2.24 c -0.56,-0.45 -1.19,-0.92 -1.82,-1.45 l -2,-1.7 c -0.68,-0.59 -1.39,-1.19 -2.1,-1.83 L 262,777 c -0.69,-0.67 -1.41,-1.31 -2.06,-2 l -1.92,-2 c -0.62,-0.66 -1.24,-1.27 -1.78,-1.89 l -1.52,-1.76 c -0.94,-1.1 -1.75,-2 -2.25,-2.66 l -0.82,-1 z"
         class="cls-9"
         data-name="&lt;Path&gt;"
         id="_Path_65" />
      <polygon
         style="fill:#15bdff"
         points="49.48,201.13 47.04,197.7 48.01,197.03 50.43,200.42 "
         class="cls-9"
         data-name="&lt;Path&gt;"
         id="_Path_66" />
      <path
         style="fill:#15bdff"
         inkscape:connector-curvature="0"
         transform="translate(-199.8,-561.43)"
         d="m 232.82,726.92 0.33,1.15 c 0.2,0.74 0.58,1.76 1,3 0.42,1.24 0.88,2.69 1.51,4.2 l 0.92,2.34 0.47,1.2 0.54,1.19 1.07,2.37 c 0.35,0.78 0.69,1.55 1.08,2.27 l 2,4 2.17,3.77 -1,0.6 -2.19,-3.81 -2.06,-4 c -0.39,-0.73 -0.74,-1.51 -1.09,-2.3 l -1.08,-2.39 -0.54,-1.2 -0.48,-1.22 -0.93,-2.37 c -0.64,-1.52 -1.09,-3 -1.52,-4.24 -0.43,-1.24 -0.8,-2.29 -1,-3 l -0.33,-1.16 z"
         class="cls-9"
         data-name="&lt;Path&gt;"
         id="_Path_67" />
      <path
         style="fill:#15bdff"
         inkscape:connector-curvature="0"
         transform="translate(-199.8,-561.43)"
         d="m 229.31,710.55 0.24,1.81 0.71,3.95 c 0.22,1.44 0.59,2.85 0.83,3.92 l 0.41,1.78 -1.15,0.28 -0.41,-1.79 c -0.24,-1.08 -0.61,-2.51 -0.84,-4 l -0.71,-4 -0.24,-1.83 z"
         class="cls-9"
         data-name="&lt;Path&gt;"
         id="_Path_68" />
      <path
         style="fill:#15bdff"
         inkscape:connector-curvature="0"
         transform="translate(-199.8,-561.43)"
         d="m 228.76,706 v 0.35 c 0,0.21 0,0.48 0.08,0.76 l 0.14,1.1 -1.17,0.14 -0.14,-1.11 c 0,-0.28 -0.07,-0.56 -0.08,-0.77 v -0.35 z"
         class="cls-9"
         data-name="&lt;Path&gt;"
         id="_Path_69" />
      <path
         style="fill:#15bdff"
         inkscape:connector-curvature="0"
         transform="translate(-199.8,-561.43)"
         d="m 228.23,695.15 0.11,4.3 c 0,0.54 0,1.08 0,1.58 l 0.1,1.37 0.1,1.34 -1.18,0.09 -0.1,-1.36 -0.11,-1.39 c 0,-0.51 0,-1.05 0,-1.6 l -0.11,-4.35 z"
         class="cls-9"
         data-name="&lt;Path&gt;"
         id="_Path_70" />
    </g>
  </g>
  <g
     data-name="&lt;Group&gt;"
     id="_Group_13">
    <g
       data-name="&lt;Group&gt;"
       id="_Group_14">
      <g
         data-name="&lt;Group&gt;"
         id="_Group_15">
        <path
           style="fill:#ffd345"
           inkscape:connector-curvature="0"
           transform="translate(-199.8,-561.43)"
           d="m 260.81,674.5 a 81.18,81.18 0 0 1 4.64,-13.12 c 0.75,-1.75 1.5,-3.14 2,-4.13 l 0.59,-1.14 c 0.14,-0.26 0.22,-0.4 0.22,-0.4 l 4.39,2.41 0.29,-0.5 -4.89,-2.73 -0.23,0.41 c -0.16,0.26 -0.37,0.66 -0.63,1.18 -0.51,1 -1.32,2.46 -2.1,4.27 a 80.84,80.84 0 0 0 -4.85,13.6 c -0.53,2 -1,4 -1.3,6 h 0.6 c 0.34,-1.92 0.76,-3.89 1.27,-5.85 z"
           class="cls-1"
           data-name="&lt;Path&gt;"
           id="_Path_71" />
      </g>
      <g
         data-name="&lt;Group&gt;"
         id="_Group_16">
        <path
           style="fill:#ffd345"
           inkscape:connector-curvature="0"
           transform="translate(-199.8,-561.43)"
           d="m 276.89,653 -0.3,0.48 -5.51,-3.6 c 0,0 0.63,-1 1.88,-2.75 l 1,-1.43 c 0.39,-0.51 0.82,-1 1.27,-1.63 0.45,-0.63 0.93,-1.21 1.47,-1.84 l 1.71,-2 a 83.11,83.11 0 0 1 8.9,-8.66 83.87,83.87 0 0 1 24.55,-14.21 90.67,90.67 0 0 1 12,-3.38 l 2.57,-0.46 c 0.82,-0.15 1.59,-0.29 2.33,-0.37 1.47,-0.17 2.74,-0.38 3.8,-0.45 l 3.33,-0.25 0.3,5.59 h -0.57 l -0.31,-5 -3.25,0.25 -3.71,0.47 c -0.72,0.08 -1.47,0.25 -2.27,0.38 -0.8,0.13 -1.64,0.28 -2.51,0.46 a 88.33,88.33 0 0 0 -11.69,3.4 82.24,82.24 0 0 0 -12.59,6 84.21,84.21 0 0 0 -11.42,7.95 86.13,86.13 0 0 0 -8.73,8.43 c -1.16,1.35 -2.25,2.56 -3.12,3.71 -0.87,1.15 -1.68,2.12 -2.26,3 l -1.39,2 c -0.32,0.46 -0.47,0.71 -0.47,0.71 z"
           class="cls-1"
           data-name="&lt;Path&gt;"
           id="_Path_72" />
      </g>
      <g
         data-name="&lt;Group&gt;"
         id="_Group_17">
        <path
           style="fill:#ffd345"
           inkscape:connector-curvature="0"
           transform="translate(-199.8,-561.43)"
           d="m 340.74,619 h -0.57 v -6.58 c 0,0 0.17,0 0.47,0 h 1.25 1.77 1 l 1,0.08 c 1.38,0.12 2.76,0.18 3.78,0.32 l 1.71,0.22 -0.72,5.55 -0.57,-0.07 0.61,-5 -1.47,-0.12 c -0.91,-0.09 -2.13,-0.17 -3.34,-0.26 -1.21,-0.09 -2.43,-0.1 -3.35,-0.14 h -1.52 z"
           class="cls-1"
           data-name="&lt;Path&gt;"
           id="_Path_73" />
      </g>
      <g
         data-name="&lt;Group&gt;"
         id="_Group_18">
        <path
           style="fill:#ffd345"
           inkscape:connector-curvature="0"
           transform="translate(-199.8,-561.43)"
           d="m 354,620.19 -0.56,-0.1 1.12,-6.49 1.82,0.33 c 0.58,0.09 1.27,0.26 2.07,0.44 l 2.68,0.62 a 84.84,84.84 0 0 1 13.89,5 83.22,83.22 0 0 1 12.78,7.36 c 0.82,0.59 1.58,1.11 2.23,1.6 l 1.67,1.31 1.07,0.84 c 0.25,0.19 0.37,0.3 0.37,0.3 l -3.57,4.31 -0.22,-0.18 -0.23,-0.18 3.17,-3.88 -1.4,-1.1 c -0.45,-0.34 -1,-0.79 -1.62,-1.25 l -2.16,-1.54 a 83.52,83.52 0 0 0 -12.35,-7.06 82,82 0 0 0 -13.38,-4.83 c -1.88,-0.49 -3.47,-0.82 -4.57,-1.08 l -1.75,-0.31 z"
           class="cls-1"
           data-name="&lt;Path&gt;"
           id="_Path_74" />
      </g>
      <g
         data-name="&lt;Group&gt;"
         id="_Group_19">
        <path
           style="fill:#ffd345"
           inkscape:connector-curvature="0"
           transform="translate(-199.8,-561.43)"
           d="m 391,638.18 -0.43,-0.37 4.34,-5 0.4,0.34 c 0.25,0.23 0.63,0.52 1,0.92 0.82,0.8 2,1.83 3,2.93 l 1.55,1.63 0.71,0.75 0.61,0.7 1.26,1.45 -4.27,3.63 -0.37,-0.43 3.8,-3.27 -1.12,-1.3 c -0.68,-0.77 -1.65,-1.75 -2.58,-2.74 -0.93,-0.99 -2,-1.9 -2.71,-2.62 -0.37,-0.36 -0.68,-0.65 -0.91,-0.84 l -0.36,-0.31 z"
           class="cls-1"
           data-name="&lt;Path&gt;"
           id="_Path_75" />
      </g>
      <g
         data-name="&lt;Group&gt;"
         id="_Group_20">
        <path
           style="fill:#ffd345"
           inkscape:connector-curvature="0"
           transform="translate(-199.8,-561.43)"
           d="m 400.84,648.78 -0.35,-0.44 5.19,-4 0.84,1.07 c 0.53,0.69 1.23,1.71 2.09,2.92 0.44,0.6 0.86,1.29 1.32,2 0.46,0.71 1,1.46 1.43,2.26 0.93,1.61 1.94,3.32 2.81,5.1 0.87,1.78 1.7,3.58 2.48,5.27 l 1,2.49 0.45,1.16 c 0.14,0.38 0.26,0.75 0.38,1.1 0.47,1.41 0.9,2.58 1.13,3.41 l 0.37,1.31 -5.39,1.54 -0.16,-0.55 4.81,-1.41 -0.36,-1.25 -1.1,-3.25 c -0.21,-0.68 -0.52,-1.38 -0.81,-2.14 -0.29,-0.76 -0.6,-1.56 -0.95,-2.37 -0.74,-1.61 -1.47,-3.36 -2.37,-5 -0.44,-0.84 -0.84,-1.7 -1.31,-2.5 L 411,653 c -0.43,-0.78 -0.93,-1.48 -1.36,-2.17 -0.43,-0.69 -0.84,-1.34 -1.25,-1.92 l -2,-2.79 c -0.49,-0.66 -0.79,-1 -0.79,-1 z"
           class="cls-1"
           data-name="&lt;Path&gt;"
           id="_Path_76" />
      </g>
      <g
         data-name="&lt;Group&gt;"
         id="_Group_21">
        <path
           style="fill:#ffd345"
           inkscape:connector-curvature="0"
           transform="translate(-199.8,-561.43)"
           d="m 421.53,678.68 c -0.39,-1.8 -0.68,-3 -0.68,-3 l -6.4,1.54 0.13,0.55 5.84,-1.36 0.18,0.77 c 0.1,0.49 0.3,1.18 0.43,2 l 0.2,1.13 h 0.6 z"
           class="cls-1"
           data-name="&lt;Path&gt;"
           id="_Path_77" />
      </g>
    </g>
    <g
       data-name="&lt;Group&gt;"
       id="_Group_22">
      <g
         data-name="&lt;Group&gt;"
         id="_Group_23">
        <path
           style="fill:#ffd345"
           inkscape:connector-curvature="0"
           transform="translate(-199.8,-561.43)"
           d="m 421.76,706.68 a 79.58,79.58 0 0 1 -6.44,22.23 c -0.75,1.75 -1.5,3.14 -2,4.13 l -0.59,1.15 c -0.13,0.26 -0.22,0.4 -0.22,0.4 l -4.39,-2.41 -0.29,0.5 4.89,2.73 L 413,735 c 0.16,-0.26 0.37,-0.66 0.63,-1.18 0.51,-1 1.32,-2.46 2.1,-4.27 a 80.52,80.52 0 0 0 6.67,-22.86 z"
           class="cls-1"
           data-name="&lt;Path&gt;"
           id="_Path_78" />
      </g>
      <g
         data-name="&lt;Group&gt;"
         id="_Group_24">
        <path
           style="fill:#ffd345"
           inkscape:connector-curvature="0"
           transform="translate(-199.8,-561.43)"
           d="m 403.89,737.26 0.3,-0.48 5.51,3.6 c 0,0 -0.63,1 -1.88,2.75 l -1,1.43 c -0.38,0.51 -0.82,1 -1.27,1.63 -0.45,0.63 -0.93,1.21 -1.47,1.84 l -1.71,2 a 83.07,83.07 0 0 1 -8.9,8.66 83.81,83.81 0 0 1 -24.55,14.21 90.49,90.49 0 0 1 -12,3.38 l -2.57,0.46 c -0.82,0.15 -1.59,0.29 -2.33,0.37 -1.47,0.17 -2.74,0.38 -3.8,0.45 l -3.33,0.25 -0.3,-5.59 h 0.57 l 0.31,5 3.25,-0.25 3.71,-0.47 c 0.72,-0.08 1.47,-0.25 2.27,-0.38 0.8,-0.13 1.64,-0.28 2.51,-0.46 a 88.35,88.35 0 0 0 11.67,-3.35 82.16,82.16 0 0 0 12.58,-5.93 84.27,84.27 0 0 0 11.42,-7.95 86.14,86.14 0 0 0 8.73,-8.43 c 1.16,-1.35 2.25,-2.56 3.12,-3.71 0.87,-1.15 1.68,-2.12 2.26,-3 l 1.39,-2 c 0.32,-0.46 0.47,-0.71 0.47,-0.71 z"
           class="cls-1"
           data-name="&lt;Path&gt;"
           id="_Path_79" />
      </g>
      <g
         data-name="&lt;Group&gt;"
         id="_Group_25">
        <path
           style="fill:#ffd345"
           inkscape:connector-curvature="0"
           transform="translate(-199.8,-561.43)"
           d="m 340,771.34 h 0.56 v 6.58 c 0,0 -0.17,0 -0.47,0 h -1.25 -1.77 -1 l -1,-0.08 c -1.38,-0.12 -2.76,-0.18 -3.78,-0.32 l -1.71,-0.22 0.72,-5.55 0.57,0.07 -0.61,5 1.51,0.19 c 0.91,0.09 2.13,0.17 3.34,0.26 1.21,0.09 2.43,0.1 3.35,0.14 h 1.52 z"
           class="cls-1"
           data-name="&lt;Path&gt;"
           id="_Path_80" />
      </g>
      <g
         data-name="&lt;Group&gt;"
         id="_Group_26">
        <path
           style="fill:#ffd345"
           inkscape:connector-curvature="0"
           transform="translate(-199.8,-561.43)"
           d="m 326.74,770.1 0.56,0.1 -1.12,6.49 -1.82,-0.33 c -0.58,-0.09 -1.27,-0.26 -2.07,-0.44 l -2.68,-0.62 a 85,85 0 0 1 -13.89,-5 83.33,83.33 0 0 1 -12.78,-7.3 c -0.82,-0.59 -1.58,-1.11 -2.23,-1.6 l -1.71,-1.35 -1.07,-0.84 c -0.25,-0.19 -0.37,-0.3 -0.37,-0.3 l 3.57,-4.31 0.22,0.18 0.23,0.18 -3.17,3.88 1.4,1.1 c 0.45,0.34 1,0.79 1.62,1.25 l 2.16,1.54 a 83.59,83.59 0 0 0 12.41,7.05 82,82 0 0 0 13.38,4.83 c 1.88,0.49 3.47,0.82 4.57,1.08 l 1.75,0.31 z"
           class="cls-1"
           data-name="&lt;Path&gt;"
           id="_Path_81" />
      </g>
      <g
         data-name="&lt;Group&gt;"
         id="_Group_27">
        <path
           style="fill:#ffd345"
           inkscape:connector-curvature="0"
           transform="translate(-199.8,-561.43)"
           d="m 289.8,752.11 0.43,0.37 -4.34,5 -0.4,-0.35 c -0.25,-0.23 -0.63,-0.52 -1,-0.92 -0.82,-0.8 -2,-1.83 -3,-2.93 l -1.56,-1.63 -0.71,-0.75 -0.61,-0.7 -1.26,-1.45 4.27,-3.63 0.38,0.43 -3.8,3.27 1.12,1.29 c 0.68,0.77 1.65,1.75 2.59,2.74 0.94,0.99 2,1.9 2.71,2.62 0.37,0.36 0.68,0.65 0.91,0.84 l 0.36,0.31 z"
           class="cls-1"
           data-name="&lt;Path&gt;"
           id="_Path_82" />
      </g>
      <g
         data-name="&lt;Group&gt;"
         id="_Group_28">
        <path
           style="fill:#ffd345"
           inkscape:connector-curvature="0"
           transform="translate(-199.8,-561.43)"
           d="m 279.93,741.51 0.35,0.44 -5.19,4 -0.84,-1.07 c -0.53,-0.69 -1.23,-1.71 -2.09,-2.92 -0.44,-0.6 -0.86,-1.29 -1.32,-2 -0.46,-0.71 -1,-1.46 -1.43,-2.26 -0.93,-1.61 -1.94,-3.32 -2.81,-5.1 -0.87,-1.78 -1.7,-3.58 -2.48,-5.27 l -1,-2.49 -0.45,-1.16 c -0.14,-0.37 -0.26,-0.74 -0.38,-1.1 -0.47,-1.41 -0.9,-2.57 -1.12,-3.41 l -0.37,-1.31 5.39,-1.54 0.16,0.55 -4.81,1.41 0.36,1.25 1.1,3.25 c 0.21,0.68 0.52,1.38 0.81,2.14 0.29,0.76 0.6,1.56 0.95,2.37 0.74,1.61 1.47,3.36 2.37,5 0.44,0.84 0.84,1.7 1.31,2.5 l 1.36,2.37 c 0.43,0.78 0.93,1.48 1.35,2.17 0.42,0.69 0.84,1.34 1.25,1.92 l 2,2.79 c 0.49,0.66 0.79,1 0.79,1 z"
           class="cls-1"
           data-name="&lt;Path&gt;"
           id="_Path_83" />
      </g>
      <g
         data-name="&lt;Group&gt;"
         id="_Group_29">
        <path
           style="fill:#ffd345"
           inkscape:connector-curvature="0"
           transform="translate(-199.8,-561.43)"
           d="m 260.36,713.87 -0.18,-0.77 c -0.1,-0.49 -0.3,-1.18 -0.43,-2 l -0.51,-2.88 c -0.09,-0.49 -0.16,-1 -0.22,-1.51 h -0.59 v 0.07 c 0.07,0.6 0.15,1.19 0.26,1.75 l 0.55,3.1 c 0.39,1.8 0.68,3 0.68,3 l 6.4,-1.54 -0.13,-0.55 z"
           class="cls-1"
           data-name="&lt;Path&gt;"
           id="_Path_84" />
      </g>
    </g>
  </g>
  <g
     data-name="&lt;Group&gt;"
     id="_Group_30">
    <g
       data-name="&lt;Group&gt;"
       id="_Group_31">
      <g
         data-name="&lt;Group&gt;"
         id="_Group_32">
        <path
           style="fill:#15bdff"
           inkscape:connector-curvature="0"
           transform="translate(-199.8,-561.43)"
           d="m 416.43,743.07 c 0.26,-0.39 0.51,-0.83 0.78,-1.33 l 1.22,-2.19 0.63,-0.23 c 0.27,-0.1 0.6,-0.22 0.91,-0.35 l 1.7,-0.71 0.43,-0.88 0.28,-0.57 c 0.21,-0.42 0.46,-0.92 0.72,-1.49 l 1.29,-3 1.36,-3.46 0.24,-0.62 c 0.15,-0.38 0.29,-0.76 0.42,-1.15 l 0.56,-1.74 c 0.12,-0.37 0.23,-0.74 0.35,-1.09 0.24,-0.72 0.46,-1.39 0.61,-2 l 0.79,-2.94 c 0.16,-0.11 0.52,-0.36 1,-0.71 0.63,-0.47 1.46,-1.11 2.3,-1.76 1.7,-1.29 3.3,-2.73 3.32,-2.75 l 0.08,-0.07 0.51,-3 0.57,-4.7 0.13,-1.76 c 0,-0.41 0.06,-0.82 0.09,-1.22 0.06,-0.75 0.12,-1.52 0.14,-2.25 l 0.09,-4.1 v -2 l -1.69,-2 c -0.3,-0.35 -0.63,-0.73 -1,-1.12 l -1.93,-2 c -1,-1 -1.89,-1.93 -2.68,-2.63 l -1.33,-1.21 -0.16,-1.35 c -0.06,-0.57 -0.18,-1.25 -0.3,-2 -0.07,-0.41 -0.14,-0.83 -0.21,-1.25 l -0.23,-1.31 -0.69,-3.23 c 0.13,-0.23 0.47,-0.85 0.79,-1.48 l 0.82,-1.69 -0.61,-2.26 c -0.22,-0.83 -0.55,-1.83 -0.89,-2.87 -0.19,-0.59 -0.4,-1.21 -0.59,-1.84 -0.63,-1.71 -1.25,-3.36 -1.75,-4.61 l -0.93,-2.15 -1,-0.46 -0.48,-0.22 c -0.42,-0.2 -0.9,-0.43 -1.4,-0.64 -1.17,-0.5 -2.32,-1 -2.66,-1.09 l -0.76,-1.52 -2.14,-3.82 -1.9,-3 c -2.42,-3.71 -5.22,-7.21 -5.7,-7.8 0,-0.52 0.08,-2.76 0.06,-5.08 0,-1.11 -0.08,-2.24 -0.14,-3.14 l -0.15,-2.26 -0.49,-0.52 c -0.21,-0.23 -0.51,-0.51 -0.85,-0.84 l -3,-2.81 -1,-0.88 -1,-0.88 c -1,-0.87 -2,-1.7 -2.79,-2.3 l -1.86,-1.44 -1.36,0.06 c -0.76,0.05 -1.77,0.14 -2.76,0.24 l -2.69,0.29 c -0.53,0.06 -0.93,0.12 -1.12,0.15 l -3.38,-2.11 -3.66,-2 -0.52,-0.26 c -1.23,-0.61 -2.5,-1.25 -3.79,-1.86 l -2.24,-1 -0.6,-0.26 c -0.52,-0.23 -1.06,-0.46 -1.59,-0.65 l -1.6,-0.6 c -0.85,-0.33 -1.66,-0.63 -2.4,-0.88 l -2.81,-0.91 c -0.48,-0.16 -0.82,-0.26 -1,-0.3 l -2.25,-3.34 h -0.1 c 0,0 -0.4,-0.11 -1.11,-0.29 l -2.89,-0.63 c -0.91,-0.22 -2,-0.4 -3.06,-0.58 l -1.07,-0.18 c -1.12,-0.21 -2.33,-0.36 -3.49,-0.49 l -1.29,-0.15 -1.23,-0.14 -3.57,-0.26 c -1,-0.07 -2,-0.09 -2.85,-0.1 h -1.35 c -0.84,0 -1.59,0 -2.19,0 h -0.79 -1.23 l -0.66,0.6 c -0.24,0.22 -0.73,0.66 -1.26,1.2 l -1.68,1.69 -0.83,0.06 c -0.59,0 -1.36,0.12 -2.1,0.21 l -2.91,0.35 -2,-1.24 -2.23,-1.34 h -0.1 c 0,0 -0.53,0.08 -1.27,0.25 l -2.73,0.6 c -0.7,0.14 -1.38,0.33 -2,0.49 l -0.75,0.2 -1.34,0.36 -1,1.47 -0.81,1.33 -2.85,0.92 -2.79,1.05 -1,-0.37 c -0.53,-0.2 -1.19,-0.4 -1.89,-0.62 l -3.17,-1 -1.18,-0.33 h -0.11 l -4.26,2.11 -2.34,1.31 c -1.27,0.67 -2.46,1.42 -3.51,2.08 h -0.05 l 0.43,0.43 c 1,-0.64 2.18,-1.37 3.41,-2 l 2.34,-1.3 4.05,-2 1.07,0.3 3.16,0.95 c 0.69,0.21 1.34,0.42 1.86,0.61 l 1.22,0.45 3,-1.12 3,-1 0.92,-1.5 0.85,-1.28 1.12,-0.3 0.76,-0.2 c 0.59,-0.16 1.26,-0.35 1.95,-0.48 l 2.74,-0.6 c 0.53,-0.12 0.94,-0.2 1.12,-0.23 l 2,1.23 2.16,1.35 3.12,-0.38 c 0.73,-0.09 1.49,-0.18 2.06,-0.21 l 1.06,-0.08 1.83,-1.85 c 0.52,-0.53 1,-1 1.24,-1.18 l 0.5,-0.45 h 1 0.81 c 0.59,0 1.33,0 2.14,0 h 1.36 c 0.9,0 1.83,0 2.82,0.1 l 3.55,0.25 1.21,0.14 1.29,0.16 c 1.21,0.14 2.35,0.27 3.45,0.49 l 1.08,0.18 c 1.09,0.18 2.12,0.35 3,0.57 l 2.89,0.63 1,0.25 2.25,3.35 h 0.11 c 0,0 0.39,0.1 1.05,0.32 l 2.81,0.91 c 0.73,0.24 1.53,0.54 2.37,0.87 l 1.54,0.58 c 0.51,0.18 1,0.4 1.55,0.63 l 0.61,0.26 2.22,1 c 1.29,0.61 2.55,1.24 3.77,1.86 l 4.15,2.28 3.56,2.22 h 0.11 c 0,0 0.49,-0.08 1.2,-0.16 0.71,-0.08 1.7,-0.19 2.68,-0.29 0.98,-0.1 2,-0.19 2.74,-0.24 l 1.14,-0.05 1.7,1.32 c 0.81,0.59 1.76,1.41 2.76,2.27 l 1.06,0.91 1,0.83 2.94,2.8 c 0.34,0.32 0.63,0.59 0.82,0.81 l 0.35,0.37 0.13,2 c 0.05,0.9 0.12,2 0.13,3.11 0,2.62 -0.06,5.14 -0.06,5.17 v 0.11 l 0.07,0.09 c 0,0 3.11,3.81 5.73,7.83 l 1.89,3 2.12,3.8 0.85,1.71 h 0.11 c 0,0 1.37,0.54 2.76,1.13 0.49,0.2 1,0.43 1.38,0.62 l 0.48,0.23 0.75,0.36 0.84,1.94 c 0.49,1.24 1.1,2.88 1.73,4.57 0.19,0.62 0.39,1.23 0.59,1.83 0.34,1 0.66,2 0.88,2.84 l 0.55,2 -0.72,1.48 c -0.41,0.79 -0.84,1.56 -0.84,1.56 l -0.06,0.1 0.66,3 0.29,1.71 c 0.07,0.43 0.14,0.85 0.21,1.26 0.13,0.71 0.24,1.38 0.3,1.94 l 0.19,1.58 1.5,1.35 c 0.77,0.69 1.69,1.62 2.65,2.6 l 1.93,2 c 0.36,0.39 0.69,0.76 1,1.1 l 1.55,1.81 v 0.7 l -0.08,5.14 c 0,0.71 -0.08,1.44 -0.13,2.22 0,0.41 -0.06,0.82 -0.09,1.23 l -0.13,1.74 -0.57,4.68 -0.47,2.8 c -0.34,0.3 -1.74,1.53 -3.21,2.65 -0.84,0.66 -1.67,1.29 -2.29,1.76 -0.62,0.47 -1,0.75 -1,0.75 l -0.1,0.07 -0.85,3.16 c -0.15,0.6 -0.36,1.27 -0.6,2 -0.12,0.36 -0.24,0.72 -0.35,1.09 l -0.56,1.73 c -0.13,0.38 -0.27,0.75 -0.42,1.13 l -0.24,0.63 -0.91,2.41 -1.72,4 c -0.26,0.56 -0.5,1.06 -0.71,1.47 l -0.29,0.58 -0.34,0.68 -1.5,0.62 c -0.3,0.13 -0.61,0.24 -0.88,0.34 l -0.83,0.3 -1.33,2.39 c -0.26,0.49 -0.51,0.91 -0.76,1.29 v 0.05 l 0.43,0.43 z"
           class="cls-9"
           data-name="&lt;Path&gt;"
           id="_Path_85" />
      </g>
    </g>
    <g
       data-name="&lt;Group&gt;"
       id="_Group_33">
      <g
         data-name="&lt;Group&gt;"
         id="_Group_34">
        <path
           style="fill:#15bdff"
           inkscape:connector-curvature="0"
           transform="translate(-199.8,-561.43)"
           d="m 372,780 -2.8,1.06 -3,1 -0.92,1.5 -0.85,1.28 -1.12,0.3 -0.76,0.21 c -0.59,0.16 -1.26,0.35 -1.94,0.48 l -2.74,0.6 c -0.53,0.12 -0.94,0.2 -1.12,0.23 l -2,-1.23 -2.16,-1.35 -3.12,0.38 c -0.73,0.09 -1.49,0.18 -2.06,0.21 l -1.06,0.08 -1.84,1.85 c -0.38,0.39 -0.84,0.82 -1.24,1.18 l -0.5,0.45 h -1 -0.81 c -0.59,0 -1.33,0 -2.14,0 h -1.36 c -0.9,0 -1.83,0 -2.81,-0.1 l -3.55,-0.25 -1.21,-0.14 -1.29,-0.15 c -1.21,-0.14 -2.35,-0.28 -3.45,-0.49 l -1.08,-0.18 c -1.09,-0.18 -2.12,-0.35 -3,-0.57 l -2.89,-0.63 -1,-0.25 -2.25,-3.35 h -0.11 c 0,0 -0.39,-0.1 -1.05,-0.32 l -2.81,-0.91 c -0.73,-0.24 -1.53,-0.54 -2.38,-0.87 l -1.54,-0.58 c -0.51,-0.18 -1,-0.4 -1.55,-0.63 l -0.61,-0.27 -2.22,-1 c -1.28,-0.61 -2.54,-1.24 -3.77,-1.85 l -4.16,-2.29 -3.56,-2.22 h -0.11 c 0,0 -0.49,0.09 -1.2,0.16 -0.71,0.07 -1.7,0.19 -2.68,0.29 -0.98,0.1 -2,0.19 -2.74,0.24 l -1.14,0.05 -1.7,-1.32 c -0.81,-0.59 -1.76,-1.41 -2.76,-2.27 l -1,-0.88 -1,-0.87 -2.94,-2.8 c -0.34,-0.32 -0.62,-0.59 -0.82,-0.81 l -0.35,-0.37 -0.13,-2 c -0.05,-0.9 -0.12,-2 -0.14,-3.11 0,-2.62 0.06,-5.14 0.06,-5.17 v -0.11 l -0.07,-0.09 c 0,0 -3.11,-3.81 -5.73,-7.83 l -1.89,-3 -2.12,-3.8 -0.85,-1.71 h -0.11 c 0,0 -1.37,-0.54 -2.76,-1.13 -0.49,-0.2 -1,-0.43 -1.38,-0.62 l -0.48,-0.23 -0.75,-0.36 -0.84,-1.94 c -0.49,-1.24 -1.1,-2.88 -1.73,-4.57 -0.19,-0.62 -0.4,-1.23 -0.59,-1.83 -0.34,-1 -0.66,-2 -0.88,-2.84 l -0.55,-2 0.73,-1.48 c 0.41,-0.79 0.84,-1.56 0.84,-1.56 l 0.05,-0.1 -0.66,-3 -0.29,-1.71 c -0.07,-0.42 -0.14,-0.85 -0.21,-1.26 -0.12,-0.71 -0.24,-1.38 -0.3,-1.94 l -0.19,-1.58 -1.5,-1.35 c -0.78,-0.7 -1.71,-1.64 -2.68,-2.63 l -1.9,-2 c -0.36,-0.39 -0.69,-0.76 -1,-1.1 L 243,698.63 v -1.62 l 0.1,-4.22 c 0,-0.71 0.08,-1.44 0.14,-2.21 0,-0.41 0.06,-0.82 0.09,-1.23 l 0.13,-1.74 0.57,-4.68 0.47,-2.8 c 0.34,-0.3 1.74,-1.53 3.21,-2.65 0.84,-0.66 1.67,-1.29 2.29,-1.76 0.62,-0.47 1,-0.75 1,-0.76 l 0.09,-0.06 0.85,-3.16 c 0.15,-0.6 0.36,-1.27 0.6,-2 0.12,-0.35 0.24,-0.72 0.35,-1.09 l 0.56,-1.73 c 0.13,-0.37 0.27,-0.75 0.41,-1.12 l 0.24,-0.63 0.83,-2.19 -0.43,-0.43 -0.95,2.42 -0.24,0.63 c -0.15,0.38 -0.29,0.76 -0.42,1.15 l -0.56,1.74 c -0.12,0.37 -0.23,0.73 -0.35,1.08 -0.24,0.72 -0.46,1.39 -0.61,2 l -0.79,2.94 c -0.16,0.11 -0.52,0.36 -1,0.71 -0.63,0.47 -1.46,1.11 -2.3,1.76 -1.7,1.29 -3.3,2.73 -3.32,2.75 l -0.08,0.07 -0.51,3 -0.57,4.71 -0.13,1.76 c 0,0.41 -0.06,0.82 -0.09,1.22 -0.06,0.75 -0.12,1.52 -0.14,2.24 l -0.09,3.93 v 2.15 l 1.69,2 c 0.3,0.35 0.63,0.73 1,1.12 l 1.9,2 c 1,1 1.91,2 2.71,2.66 l 1.33,1.21 0.16,1.35 c 0.06,0.57 0.18,1.25 0.3,2 0.07,0.41 0.14,0.83 0.21,1.25 l 0.23,1.31 0.69,3.23 c -0.13,0.23 -0.47,0.85 -0.79,1.48 l -0.78,1.68 0.61,2.26 c 0.23,0.83 0.55,1.83 0.89,2.88 0.19,0.59 0.4,1.21 0.59,1.84 0.64,1.71 1.25,3.36 1.75,4.61 l 0.93,2.15 1,0.46 0.48,0.22 c 0.42,0.2 0.9,0.43 1.4,0.64 1.17,0.5 2.32,1 2.66,1.09 l 0.75,1.52 2.14,3.82 1.9,3 c 2.42,3.71 5.22,7.21 5.7,7.8 0,0.52 -0.08,2.76 -0.06,5.08 0,1.11 0.08,2.24 0.14,3.14 l 0.15,2.26 0.49,0.52 0.26,0.28 0.59,0.57 3,2.81 1,0.88 1,0.88 c 1,0.87 2,1.7 2.79,2.3 l 1.86,1.44 1.36,-0.06 c 0.76,-0.05 1.77,-0.14 2.76,-0.24 l 2.69,-0.29 c 0.53,-0.06 0.93,-0.12 1.12,-0.15 l 3.38,2.11 3.66,2 0.53,0.26 c 1.22,0.61 2.49,1.24 3.79,1.86 l 2.24,1 0.61,0.26 c 0.52,0.23 1.06,0.46 1.58,0.65 l 1.53,0.58 c 0.85,0.33 1.66,0.64 2.41,0.88 l 2.81,0.91 c 0.48,0.16 0.82,0.26 1,0.3 l 2.25,3.34 h 0.1 c 0,0 0.4,0.11 1.11,0.29 l 2.89,0.63 c 0.91,0.22 2,0.4 3.06,0.58 l 1.07,0.18 c 1.12,0.21 2.32,0.36 3.49,0.49 l 1.29,0.15 1.23,0.14 3.57,0.26 c 1,0.07 2,0.09 2.84,0.1 h 1.35 c 0.84,0 1.59,0 2.19,0 h 0.79 1.23 l 0.66,-0.6 c 0.24,-0.22 0.72,-0.66 1.26,-1.2 l 1.68,-1.69 0.83,-0.06 c 0.59,0 1.36,-0.12 2.1,-0.21 l 2.91,-0.35 2,1.24 2.23,1.34 h 0.1 c 0,0 0.53,-0.08 1.27,-0.25 l 2.73,-0.6 c 0.7,-0.14 1.38,-0.32 2,-0.49 l 0.75,-0.2 1.34,-0.36 1,-1.47 0.81,-1.33 2.85,-0.92 2.79,-1.05 0.59,0.21 z"
           class="cls-9"
           data-name="&lt;Path&gt;"
           id="_Path_86" />
      </g>
    </g>
  </g>
  <g
     data-name="&lt;Group&gt;"
     id="_Group_46">
    <path
       style="fill:#ffd345"
       inkscape:connector-curvature="0"
       transform="translate(-199.8,-561.43)"
       d="m 340.62,828.17 -6.8,-6.22 v -15.42 l 6.8,-6.22 6.8,6.22 v 15.41 z m -5.81,-6.66 5.81,5.31 5.8,-5.31 V 807 l -5.8,-5.31 -5.8,5.31 z"
       class="cls-1"
       data-name="&lt;Compound Path&gt;"
       id="_Compound_Path_5" />
  </g>
  <g
     data-name="&lt;Group&gt;"
     id="_Group_47">
    <polygon
       style="fill:#ffd345"
       points="136.51,246.2 136.51,252.28 145.12,252.28 145.12,246.2 140.82,242.26 "
       class="cls-1"
       data-name="&lt;Path&gt;"
       id="_Path_344" />
  </g>
  <g
     data-name="&lt;Group&gt;"
     id="_Group_48">
    <path
       style="fill:#ffd345"
       inkscape:connector-curvature="0"
       transform="translate(-199.8,-561.43)"
       d="m 340.62,561.43 6.8,6.22 v 15.41 l -6.8,6.22 -6.8,-6.22 v -15.4 z m 5.8,6.66 -5.8,-5.31 -5.81,5.31 v 14.53 l 5.81,5.31 5.8,-5.31 z"
       class="cls-1"
       data-name="&lt;Compound Path&gt;"
       id="_Compound_Path_6" />
  </g>
  <g
     data-name="&lt;Group&gt;"
     id="_Group_49">
    <polygon
       style="fill:#ffd345"
       points="145.12,20.54 145.12,14.46 136.51,14.46 136.51,20.54 140.82,24.48 "
       class="cls-1"
       data-name="&lt;Path&gt;"
       id="_Path_345" />
  </g>
  <polygon
     style="fill:#57ffeb"
     points="119.89,90.79 115.67,86.57 110.32,86.57 110.32,90.79 110.32,91.38 170.85,91.38 170.85,90.79 170.85,86.57 165.5,86.57 161.28,90.79 "
     class="cls-8"
     data-name="&lt;Path&gt;"
     id="_Path_346" />
  <g
     data-name="&lt;Group&gt;"
     id="_Group_50">
    <g
       data-name="&lt;Group&gt;"
       id="_Group_51">
      <rect
         style="fill:#57ffeb"
         height="3.1700001"
         width="3.21"
         y="178.50999"
         x="111.24"
         class="cls-8"
         data-name="&lt;Path&gt;"
         id="_Path_347" />
      <rect
         style="fill:#57ffeb"
         height="2.9300001"
         width="3.2"
         y="178.75"
         x="117.26"
         class="cls-8"
         data-name="&lt;Path&gt;"
         id="_Path_348" />
      <rect
         style="fill:#57ffeb"
         height="2.6900001"
         width="3.21"
         y="178.98"
         x="123.28"
         class="cls-8"
         data-name="&lt;Path&gt;"
         id="_Path_349" />
      <rect
         style="fill:#57ffeb"
         height="2.46"
         width="3.21"
         y="179.22"
         x="129.3"
         class="cls-8"
         data-name="&lt;Path&gt;"
         id="_Path_350" />
      <rect
         style="fill:#57ffeb"
         height="2.22"
         width="3.21"
         y="179.46001"
         x="135.32001"
         class="cls-8"
         data-name="&lt;Path&gt;"
         id="_Path_351" />
      <rect
         style="fill:#57ffeb"
         height="1.98"
         width="3.21"
         y="179.69"
         x="141.34"
         class="cls-8"
         data-name="&lt;Path&gt;"
         id="_Path_352" />
      <rect
         style="fill:#57ffeb"
         height="1.74"
         width="3.21"
         y="179.92999"
         x="147.36"
         class="cls-8"
         data-name="&lt;Path&gt;"
         id="_Path_353" />
      <rect
         style="fill:#57ffeb"
         height="1.51"
         width="3.21"
         y="180.17"
         x="153.38"
         class="cls-8"
         data-name="&lt;Path&gt;"
         id="_Path_354" />
      <rect
         style="fill:#57ffeb"
         height="1.27"
         width="3.21"
         y="180.41"
         x="159.39999"
         class="cls-8"
         data-name="&lt;Path&gt;"
         id="_Path_355" />
      <rect
         style="fill:#57ffeb"
         height="1.03"
         width="3.21"
         y="180.64"
         x="165.42"
         class="cls-8"
         data-name="&lt;Path&gt;"
         id="_Path_356" />
    </g>
  </g>
  <g
     data-name="&lt;Group&gt;"
     id="_Group_52">
    <rect
       style="fill:#b8ff48"
       height="5.5"
       width="0.63999999"
       y="93.410004"
       x="110.32"
       class="cls-2"
       data-name="&lt;Rectangle&gt;"
       id="_Rectangle_" />
    <rect
       style="fill:#b8ff48"
       height="2.75"
       width="0.63999999"
       y="93.410004"
       x="112.54"
       class="cls-2"
       data-name="&lt;Rectangle&gt;"
       id="_Rectangle_2" />
    <rect
       style="fill:#b8ff48"
       height="5.5"
       width="0.63999999"
       y="93.410004"
       x="114.75"
       class="cls-2"
       data-name="&lt;Rectangle&gt;"
       id="_Rectangle_3" />
    <rect
       style="fill:#b8ff48"
       height="2.75"
       width="0.63999999"
       y="93.410004"
       x="116.97"
       class="cls-2"
       data-name="&lt;Rectangle&gt;"
       id="_Rectangle_4" />
    <rect
       style="fill:#b8ff48"
       height="5.5"
       width="0.63999999"
       y="93.410004"
       x="119.19"
       class="cls-2"
       data-name="&lt;Rectangle&gt;"
       id="_Rectangle_5" />
    <rect
       style="fill:#b8ff48"
       height="2.75"
       width="0.63999999"
       y="93.410004"
       x="121.41"
       class="cls-2"
       data-name="&lt;Rectangle&gt;"
       id="_Rectangle_6" />
    <rect
       style="fill:#b8ff48"
       height="5.5"
       width="0.63999999"
       y="93.410004"
       x="123.63"
       class="cls-2"
       data-name="&lt;Rectangle&gt;"
       id="_Rectangle_7" />
    <rect
       style="fill:#b8ff48"
       height="2.75"
       width="0.63999999"
       y="93.410004"
       x="125.85"
       class="cls-2"
       data-name="&lt;Rectangle&gt;"
       id="_Rectangle_8" />
    <rect
       style="fill:#b8ff48"
       height="5.5"
       width="0.63999999"
       y="93.410004"
       x="128.07001"
       class="cls-2"
       data-name="&lt;Rectangle&gt;"
       id="_Rectangle_9" />
    <rect
       style="fill:#b8ff48"
       height="2.75"
       width="0.63999999"
       y="93.410004"
       x="130.28"
       class="cls-2"
       data-name="&lt;Rectangle&gt;"
       id="_Rectangle_10" />
    <rect
       style="fill:#b8ff48"
       height="5.5"
       width="0.63999999"
       y="93.410004"
       x="132.5"
       class="cls-2"
       data-name="&lt;Rectangle&gt;"
       id="_Rectangle_11" />
    <rect
       style="fill:#b8ff48"
       height="2.75"
       width="0.63999999"
       y="93.410004"
       x="134.72"
       class="cls-2"
       data-name="&lt;Rectangle&gt;"
       id="_Rectangle_12" />
    <rect
       style="fill:#b8ff48"
       height="5.5"
       width="0.63999999"
       y="93.410004"
       x="136.94"
       class="cls-2"
       data-name="&lt;Rectangle&gt;"
       id="_Rectangle_13" />
    <rect
       style="fill:#b8ff48"
       height="2.75"
       width="0.63999999"
       y="93.410004"
       x="139.16"
       class="cls-2"
       data-name="&lt;Rectangle&gt;"
       id="_Rectangle_14" />
    <rect
       style="fill:#b8ff48"
       height="5.5"
       width="0.63999999"
       y="93.410004"
       x="141.38"
       class="cls-2"
       data-name="&lt;Rectangle&gt;"
       id="_Rectangle_15" />
    <rect
       style="fill:#b8ff48"
       height="2.75"
       width="0.63999999"
       y="93.410004"
       x="143.59"
       class="cls-2"
       data-name="&lt;Rectangle&gt;"
       id="_Rectangle_16" />
    <rect
       style="fill:#b8ff48"
       height="5.5"
       width="0.63999999"
       y="93.410004"
       x="145.81"
       class="cls-2"
       data-name="&lt;Rectangle&gt;"
       id="_Rectangle_17" />
    <rect
       style="fill:#b8ff48"
       height="2.75"
       width="0.63999999"
       y="93.410004"
       x="148.03"
       class="cls-2"
       data-name="&lt;Rectangle&gt;"
       id="_Rectangle_18" />
    <rect
       style="fill:#b8ff48"
       height="5.5"
       width="0.63999999"
       y="93.410004"
       x="150.25"
       class="cls-2"
       data-name="&lt;Rectangle&gt;"
       id="_Rectangle_19" />
    <rect
       style="fill:#b8ff48"
       height="2.75"
       width="0.63999999"
       y="93.410004"
       x="152.47"
       class="cls-2"
       data-name="&lt;Rectangle&gt;"
       id="_Rectangle_20" />
    <rect
       style="fill:#b8ff48"
       height="5.5"
       width="0.63999999"
       y="93.410004"
       x="154.69"
       class="cls-2"
       data-name="&lt;Rectangle&gt;"
       id="_Rectangle_21" />
    <rect
       style="fill:#b8ff48"
       height="2.75"
       width="0.63999999"
       y="93.410004"
       x="156.89999"
       class="cls-2"
       data-name="&lt;Rectangle&gt;"
       id="_Rectangle_22" />
    <rect
       style="fill:#b8ff48"
       height="5.5"
       width="0.63999999"
       y="93.410004"
       x="159.12"
       class="cls-2"
       data-name="&lt;Rectangle&gt;"
       id="_Rectangle_23" />
    <rect
       style="fill:#b8ff48"
       height="2.75"
       width="0.63999999"
       y="93.410004"
       x="161.34"
       class="cls-2"
       data-name="&lt;Rectangle&gt;"
       id="_Rectangle_24" />
    <rect
       style="fill:#b8ff48"
       height="5.5"
       width="0.63999999"
       y="93.410004"
       x="163.56"
       class="cls-2"
       data-name="&lt;Rectangle&gt;"
       id="_Rectangle_25" />
    <rect
       style="fill:#b8ff48"
       height="2.75"
       width="0.63999999"
       y="93.410004"
       x="165.78"
       class="cls-2"
       data-name="&lt;Rectangle&gt;"
       id="_Rectangle_26" />
    <rect
       style="fill:#b8ff48"
       height="5.5"
       width="0.63999999"
       y="93.410004"
       x="168"
       class="cls-2"
       data-name="&lt;Rectangle&gt;"
       id="_Rectangle_27" />
    <rect
       style="fill:#b8ff48"
       height="2.75"
       width="0.63999999"
       y="93.410004"
       x="170.21001"
       class="cls-2"
       data-name="&lt;Rectangle&gt;"
       id="_Rectangle_28" />
  </g>
  <polygon
     style="fill:#b8ff48"
     points="140.58,88.97 136.13,83.78 145.04,83.78 "
     class="cls-2"
     data-name="&lt;Path&gt;"
     id="_Path_357" />
</svg>
