<svg id="Ñëîé_1" data-name="Ñëîé 1" xmlns="http://www.w3.org/2000/svg" viewBox="0 0 97.44 27.75"><defs><style>.cls-1,.cls-3{fill:#f55;}.cls-2{fill:#ffc145;stroke:#000;stroke-miterlimit:10;}.cls-3{font-size:13.28px;font-family:Arial-BoldMT, Arial;font-weight:700;}</style></defs><title>rejected</title><polygon id="_Path_" data-name="&lt;Path&gt;" class="cls-1" points="89.99 20.55 90.93 20.55 89.89 23.48 88.95 23.48 89.99 20.55"/><polygon id="_Path_2" data-name="&lt;Path&gt;" class="cls-1" points="87.98 20.55 88.93 20.55 87.89 23.48 86.95 23.48 87.98 20.55"/><polygon id="_Path_3" data-name="&lt;Path&gt;" class="cls-1" points="85.98 20.55 86.93 20.55 85.89 23.48 84.94 23.48 85.98 20.55"/><polygon id="_Path_4" data-name="&lt;Path&gt;" class="cls-1" points="83.98 20.55 84.92 20.55 83.89 23.48 82.94 23.48 83.98 20.55"/><polygon id="_Path_5" data-name="&lt;Path&gt;" class="cls-1" points="81.98 20.55 82.92 20.55 81.88 23.48 80.94 23.48 81.98 20.55"/><polygon id="_Path_6" data-name="&lt;Path&gt;" class="cls-1" points="79.97 20.55 80.92 20.55 79.88 23.48 78.94 23.48 79.97 20.55"/><polygon id="_Path_7" data-name="&lt;Path&gt;" class="cls-1" points="77.97 20.55 78.92 20.55 77.88 23.48 76.94 23.48 77.97 20.55"/><polygon id="_Path_8" data-name="&lt;Path&gt;" class="cls-1" points="75.97 20.55 76.91 20.55 75.88 23.48 74.93 23.48 75.97 20.55"/><polygon id="_Path_9" data-name="&lt;Path&gt;" class="cls-1" points="73.97 20.55 74.91 20.55 73.87 23.48 72.93 23.48 73.97 20.55"/><polygon id="_Path_10" data-name="&lt;Path&gt;" class="cls-1" points="71.96 20.55 72.91 20.55 71.87 23.48 70.93 23.48 71.96 20.55"/><polygon id="_Path_11" data-name="&lt;Path&gt;" class="cls-1" points="69.96 20.55 70.91 20.55 69.87 23.48 68.92 23.48 69.96 20.55"/><polygon id="_Path_12" data-name="&lt;Path&gt;" class="cls-1" points="67.96 20.55 68.9 20.55 67.87 23.48 66.92 23.48 67.96 20.55"/><polygon id="_Path_13" data-name="&lt;Path&gt;" class="cls-1" points="65.95 20.55 66.9 20.55 65.86 23.48 64.92 23.48 65.95 20.55"/><polygon id="_Path_14" data-name="&lt;Path&gt;" class="cls-1" points="63.95 20.55 64.9 20.55 63.86 23.48 62.92 23.48 63.95 20.55"/><polygon id="_Path_15" data-name="&lt;Path&gt;" class="cls-1" points="61.95 20.55 62.89 20.55 61.86 23.48 60.91 23.48 61.95 20.55"/><polygon id="_Path_16" data-name="&lt;Path&gt;" class="cls-1" points="59.95 20.55 60.89 20.55 59.86 23.48 58.91 23.48 59.95 20.55"/><polygon id="_Path_17" data-name="&lt;Path&gt;" class="cls-1" points="57.95 20.55 58.89 20.55 57.85 23.48 56.91 23.48 57.95 20.55"/><polygon id="_Path_18" data-name="&lt;Path&gt;" class="cls-1" points="55.94 20.55 56.89 20.55 55.85 23.48 54.91 23.48 55.94 20.55"/><polygon id="_Path_19" data-name="&lt;Path&gt;" class="cls-1" points="53.94 20.55 54.88 20.55 53.85 23.48 52.9 23.48 53.94 20.55"/><polygon id="_Path_20" data-name="&lt;Path&gt;" class="cls-1" points="51.94 20.55 52.88 20.55 51.84 23.48 50.9 23.48 51.94 20.55"/><polygon id="_Path_21" data-name="&lt;Path&gt;" class="cls-1" points="49.94 20.55 50.88 20.55 49.84 23.48 48.9 23.48 49.94 20.55"/><polygon id="_Path_22" data-name="&lt;Path&gt;" class="cls-1" points="47.93 20.55 48.88 20.55 47.84 23.48 46.9 23.48 47.93 20.55"/><polygon id="_Path_23" data-name="&lt;Path&gt;" class="cls-1" points="45.93 20.55 46.87 20.55 45.84 23.48 44.89 23.48 45.93 20.55"/><polygon id="_Path_24" data-name="&lt;Path&gt;" class="cls-1" points="43.93 20.55 44.87 20.55 43.83 23.48 42.89 23.48 43.93 20.55"/><polygon id="_Path_25" data-name="&lt;Path&gt;" class="cls-1" points="41.92 20.55 42.87 20.55 41.83 23.48 40.89 23.48 41.92 20.55"/><polygon id="_Path_26" data-name="&lt;Path&gt;" class="cls-1" points="39.92 20.55 40.87 20.55 39.83 23.48 38.88 23.48 39.92 20.55"/><polygon id="_Path_27" data-name="&lt;Path&gt;" class="cls-1" points="37.92 20.55 38.86 20.55 37.83 23.48 36.88 23.48 37.92 20.55"/><polygon id="_Path_28" data-name="&lt;Path&gt;" class="cls-1" points="35.91 20.55 36.86 20.55 35.82 23.48 34.88 23.48 35.91 20.55"/><polygon id="_Path_29" data-name="&lt;Path&gt;" class="cls-1" points="33.91 20.55 34.86 20.55 33.82 23.48 32.88 23.48 33.91 20.55"/><polygon id="_Path_30" data-name="&lt;Path&gt;" class="cls-1" points="89.99 3.14 90.93 3.14 89.89 6.07 88.95 6.07 89.99 3.14"/><polygon id="_Path_31" data-name="&lt;Path&gt;" class="cls-1" points="87.98 3.14 88.93 3.14 87.89 6.07 86.95 6.07 87.98 3.14"/><polygon id="_Path_32" data-name="&lt;Path&gt;" class="cls-1" points="85.98 3.14 86.93 3.14 85.89 6.07 84.94 6.07 85.98 3.14"/><polygon id="_Path_33" data-name="&lt;Path&gt;" class="cls-1" points="83.98 3.14 84.92 3.14 83.89 6.07 82.94 6.07 83.98 3.14"/><polygon id="_Path_34" data-name="&lt;Path&gt;" class="cls-1" points="81.98 3.14 82.92 3.14 81.88 6.07 80.94 6.07 81.98 3.14"/><polygon id="_Path_35" data-name="&lt;Path&gt;" class="cls-1" points="79.97 3.14 80.92 3.14 79.88 6.07 78.94 6.07 79.97 3.14"/><polygon id="_Path_36" data-name="&lt;Path&gt;" class="cls-1" points="77.97 3.14 78.92 3.14 77.88 6.07 76.94 6.07 77.97 3.14"/><polygon id="_Path_37" data-name="&lt;Path&gt;" class="cls-1" points="75.97 3.14 76.91 3.14 75.88 6.07 74.93 6.07 75.97 3.14"/><polygon id="_Path_38" data-name="&lt;Path&gt;" class="cls-1" points="73.97 3.14 74.91 3.14 73.87 6.07 72.93 6.07 73.97 3.14"/><polygon id="_Path_39" data-name="&lt;Path&gt;" class="cls-1" points="71.96 3.14 72.91 3.14 71.87 6.07 70.93 6.07 71.96 3.14"/><polygon id="_Path_40" data-name="&lt;Path&gt;" class="cls-1" points="69.96 3.14 70.91 3.14 69.87 6.07 68.92 6.07 69.96 3.14"/><polygon id="_Path_41" data-name="&lt;Path&gt;" class="cls-1" points="67.96 3.14 68.9 3.14 67.87 6.07 66.92 6.07 67.96 3.14"/><polygon id="_Path_42" data-name="&lt;Path&gt;" class="cls-1" points="65.95 3.14 66.9 3.14 65.86 6.07 64.92 6.07 65.95 3.14"/><polygon id="_Path_43" data-name="&lt;Path&gt;" class="cls-1" points="63.95 3.14 64.9 3.14 63.86 6.07 62.92 6.07 63.95 3.14"/><polygon id="_Path_44" data-name="&lt;Path&gt;" class="cls-1" points="61.95 3.14 62.89 3.14 61.86 6.07 60.91 6.07 61.95 3.14"/><polygon id="_Path_45" data-name="&lt;Path&gt;" class="cls-1" points="59.95 3.14 60.89 3.14 59.86 6.07 58.91 6.07 59.95 3.14"/><polygon id="_Path_46" data-name="&lt;Path&gt;" class="cls-1" points="57.95 3.14 58.89 3.14 57.85 6.07 56.91 6.07 57.95 3.14"/><polygon id="_Path_47" data-name="&lt;Path&gt;" class="cls-1" points="55.94 3.14 56.89 3.14 55.85 6.07 54.91 6.07 55.94 3.14"/><polygon id="_Path_48" data-name="&lt;Path&gt;" class="cls-1" points="53.94 3.14 54.88 3.14 53.85 6.07 52.9 6.07 53.94 3.14"/><polygon id="_Path_49" data-name="&lt;Path&gt;" class="cls-1" points="51.94 3.14 52.88 3.14 51.84 6.07 50.9 6.07 51.94 3.14"/><polygon id="_Path_50" data-name="&lt;Path&gt;" class="cls-1" points="49.94 3.14 50.88 3.14 49.84 6.07 48.9 6.07 49.94 3.14"/><polygon id="_Path_51" data-name="&lt;Path&gt;" class="cls-1" points="47.93 3.14 48.88 3.14 47.84 6.07 46.9 6.07 47.93 3.14"/><polygon id="_Path_52" data-name="&lt;Path&gt;" class="cls-1" points="45.93 3.14 46.87 3.14 45.84 6.07 44.89 6.07 45.93 3.14"/><polygon id="_Path_53" data-name="&lt;Path&gt;" class="cls-1" points="43.93 3.14 44.87 3.14 43.83 6.07 42.89 6.07 43.93 3.14"/><polygon id="_Path_54" data-name="&lt;Path&gt;" class="cls-1" points="41.92 3.14 42.87 3.14 41.83 6.07 40.89 6.07 41.92 3.14"/><polygon id="_Path_55" data-name="&lt;Path&gt;" class="cls-1" points="39.92 3.14 40.87 3.14 39.83 6.07 38.88 6.07 39.92 3.14"/><polygon id="_Path_56" data-name="&lt;Path&gt;" class="cls-1" points="37.92 3.14 38.86 3.14 37.83 6.07 36.88 6.07 37.92 3.14"/><polygon id="_Path_57" data-name="&lt;Path&gt;" class="cls-1" points="35.91 3.14 36.86 3.14 35.82 6.07 34.88 6.07 35.91 3.14"/><polygon id="_Path_58" data-name="&lt;Path&gt;" class="cls-1" points="33.91 3.14 34.86 3.14 33.82 6.07 32.88 6.07 33.91 3.14"/><path id="_Compound_Path_" data-name="&lt;Compound Path&gt;" class="cls-1" d="M811.63,524.14l-.8,6.77h-1.5l-.8-6.77v-3.69h3.1Zm-.08,7.94v2.84H808.6v-2.84Z" transform="translate(-793.35 -514.37)"/><path id="_Compound_Path_2" data-name="&lt;Compound Path&gt;" class="cls-1" d="M817.06,540.35h-14l-.09-.16-6.89-11.94,7-12.1h14l.09.16L824,528.25Zm-13.6-.63H816.7l6.62-11.47-6.62-11.47H803.46l-6.62,11.47Z" transform="translate(-793.35 -514.37)"/><polygon id="_Path_59" data-name="&lt;Path&gt;" class="cls-1" points="23.53 25.97 9.74 25.97 9.65 25.82 2.76 13.88 9.65 1.94 10.2 2.25 3.49 13.88 10.11 25.34 23.53 25.34 23.53 25.97"/><polygon id="_Path_60" data-name="&lt;Path&gt;" class="cls-1" points="8.01 27.75 0 13.88 8.01 0 8.56 0.32 0.73 13.88 8.56 27.43 8.01 27.75"/><path id="_Path_61" data-name="&lt;Path&gt;" class="cls-2" d="M816.88,516.47" transform="translate(-793.35 -514.37)"/><polygon id="_Path_62" data-name="&lt;Path&gt;" class="cls-1" points="91 26.96 32.42 26.96 28.38 22.91 28.6 22.69 32.55 26.64 90.87 26.64 94.32 23.2 94.54 23.42 91 26.96"/><polygon id="_Path_63" data-name="&lt;Path&gt;" class="cls-1" points="94.32 4.72 90.36 0.77 32.05 0.77 28.6 4.22 28.38 3.99 31.92 0.45 90.49 0.45 94.54 4.5 94.32 4.72"/><polygon id="_Path_64" data-name="&lt;Path&gt;" class="cls-1" points="96.91 23.41 93.08 19.59 93.08 8.11 96.99 4.2 97.44 4.65 93.71 8.37 93.71 19.33 97.35 22.97 96.91 23.41"/><text class="cls-3" transform="translate(32.88 18.47) scale(0.82 1)">REJECTED</text></svg>