<?xml version="1.0" encoding="UTF-8" standalone="no"?>
<!-- Created with Inkscape (http://www.inkscape.org/) -->

<svg
   xmlns:dc="http://purl.org/dc/elements/1.1/"
   xmlns:cc="http://creativecommons.org/ns#"
   xmlns:rdf="http://www.w3.org/1999/02/22-rdf-syntax-ns#"
   xmlns:svg="http://www.w3.org/2000/svg"
   xmlns="http://www.w3.org/2000/svg"
   xmlns:xlink="http://www.w3.org/1999/xlink"
   xmlns:sodipodi="http://sodipodi.sourceforge.net/DTD/sodipodi-0.dtd"
   xmlns:inkscape="http://www.inkscape.org/namespaces/inkscape"
   id="svg2"
   version="1.1"
   inkscape:version="0.48.5 r10040"
   width="65"
   height="32"
   xml:space="preserve"
   sodipodi:docname="SAP.svg"><metadata
     id="metadata8"><rdf:RDF><cc:Work
         rdf:about=""><dc:format>image/svg+xml</dc:format><dc:type
           rdf:resource="http://purl.org/dc/dcmitype/StillImage" /><dc:title /></cc:Work></rdf:RDF></metadata><defs
     id="defs6"><linearGradient
       id="linearGradient3781"><stop
         style="stop-color:#33b6ea;stop-opacity:1;"
         offset="0"
         id="stop3783" /><stop
         style="stop-color:#3359a5;stop-opacity:1;"
         offset="1"
         id="stop3785" /></linearGradient><clipPath
       clipPathUnits="userSpaceOnUse"
       id="clipPath20"><path
         d="m 0,33.839 68.403,0 L 68.403,0 0,0 0,33.839 z"
         id="path22"
         inkscape:connector-curvature="0" /></clipPath><linearGradient
       inkscape:collect="always"
       xlink:href="#linearGradient3781"
       id="linearGradient3787"
       x1="0.0016154995"
       y1="33.841125"
       x2="0.0031425531"
       y2="-0.0022044065"
       gradientUnits="userSpaceOnUse"
       gradientTransform="matrix(0.75652354,0,0,0.75652354,0,2.3809524e-5)" /></defs><sodipodi:namedview
     pagecolor="#ffffff"
     bordercolor="#666666"
     borderopacity="1"
     objecttolerance="10"
     gridtolerance="10"
     guidetolerance="10"
     inkscape:pageopacity="0"
     inkscape:pageshadow="2"
     inkscape:window-width="1920"
     inkscape:window-height="1018"
     id="namedview4"
     showgrid="false"
     inkscape:zoom="4.2571044"
     inkscape:cx="0.26934364"
     inkscape:cy="0.054465965"
     inkscape:window-x="-8"
     inkscape:window-y="-8"
     inkscape:window-maximized="1"
     inkscape:current-layer="g10"
     inkscape:showpageshadow="false"
     fit-margin-top="0"
     fit-margin-left="0"
     fit-margin-right="0"
     fit-margin-bottom="0" /><g
     id="g10"
     inkscape:groupmode="layer"
     inkscape:label="Vector Smart Object"
     transform="matrix(1.25,0,0,-1.25,0,32.000125)"><path
       inkscape:connector-curvature="0"
       id="path14"
       style="fill:url(#linearGradient3787);fill-opacity:1;fill-rule:nonzero;stroke:none"
       d="m 0,25.6001 0,-25.6 26.153775,0 25.595461,25.6 L 0,25.6001 z" /><g
       id="g24"
       transform="matrix(0.75652354,0,0,0.75652354,31.00937,13.349563)"><path
         d="m 0,0 -1.484,0 0,5.426 1.484,0 C 1.978,5.426 3.556,4.769 3.556,2.749 3.556,0.658 1.978,0 0,0 m -15.957,-3.868 c -0.786,0 -1.522,0.137 -2.157,0.376 l 2.133,6.734 0.041,0 2.097,-6.752 c -0.63,-0.225 -1.35,-0.358 -2.114,-0.358 m 15.562,13.698 -6.734,0.005 0,-16.01 -5.882,16.01 -5.832,0 -5.022,-13.39 c -0.535,3.376 -4.027,4.543 -6.774,5.416 -1.814,0.583 -3.739,1.44 -3.721,2.387 0.015,0.777 1.032,1.499 3.048,1.391 1.355,-0.072 2.55,-0.181 4.928,-1.329 l 2.339,4.074 c -2.171,1.104 -5.17,1.803 -7.628,1.805 l -0.014,0 c -2.866,0 -5.254,-0.928 -6.735,-2.459 -1.031,-1.069 -1.587,-2.426 -1.611,-3.928 -0.037,-2.065 0.72,-3.531 2.312,-4.7 1.345,-0.986 3.064,-1.625 4.579,-2.095 1.869,-0.579 3.395,-1.081 3.377,-2.156 -0.013,-0.39 -0.162,-0.755 -0.443,-1.051 -0.465,-0.48 -1.182,-0.661 -2.17,-0.68 -1.907,-0.04 -3.322,0.259 -5.575,1.59 l -2.08,-4.13 c 2.247,-1.279 4.908,-2.028 7.622,-2.028 l 0.35,0.003 c 2.363,0.043 4.27,0.717 5.794,1.943 0.087,0.07 0.166,0.141 0.247,0.213 l -0.676,-1.804 6.117,0 1.027,3.122 c 1.074,-0.367 2.296,-0.57 3.595,-0.57 1.264,0 2.454,0.193 3.509,0.539 l 0.989,-3.091 9.975,0 0,6.464 2.175,0 c 5.261,0 8.371,2.678 8.371,7.166 0,4.999 -3.023,7.293 -9.457,7.293"
         style="fill:#ffffff;fill-opacity:1;fill-rule:evenodd;stroke:none"
         id="path26"
         inkscape:connector-curvature="0" /></g></g></svg>